<svg xmlns="http://www.w3.org/2000/svg" viewBox="0 0 448 224" width="448" height="224">
<title>Consume Enhance Replicate</title>
<alt>MaverickCER Logo</alt>
<g>
  <rect x="0" y="0" width="128" height="32" />
  <rect x="0" y="0" width="32" height="224" />
  <rect x="0" y="192" width="128" height="32" />
  <rect x="160" y="0" width="128" height="32" />
  <rect x="160" y="96" width="128" height="32" />
  <rect x="160" y="192" width="128" height="32" />
  <rect x="320" y="0" width="128" height="32" />
  <rect x="320" y="96" width="128" height="32" />
  <rect x="416" y="0" width="32" height="128" />
  <polygon points="367,126 399,126 416,160 384,160" />
  <polygon points="400,192 432,192 448,224 416,224" />
</g>
</svg>

<!-- 
More information can be found about this small project at http://anthonypotgieter.com/svg-background-animation-foundation-6/
-->

<svg version="1.1" id="Layer_1" xmlns="http://www.w3.org/2000/svg" xmlns:xlink="http://www.w3.org/1999/xlink" x="0px" y="0px" viewBox="1165.59998 -435 1780.00012 779.59998" style="enable-background:new 1165.59998 -435 1780.00012 779.59998;" xml:space="preserve">

  <linearGradient id="sky_x2F_space_2_" gradientUnits="userSpaceOnUse" x1="2081.42383" y1="37.23634" x2="2038.89929" y2="-761.91064" gradientTransform="matrix(1 0 0 1 0 343.99988)">
    <stop offset="0" style="stop-color:#F3C187" />
    <stop offset="0.05274" style="stop-color:#F4AA8D" />
    <stop offset="0.1186" style="stop-color:#DF7D66" />
    <stop offset="0.3059" style="stop-color:#4E5763" />
    <stop offset="0.5913" style="stop-color:#0C3C4C" />
    <stop offset="1" style="stop-color:#0E1C22" />
  </linearGradient>
  <rect id="sky_x2F_space_1_" x="1165.59998" y="-435" class="st0" width="1782.29993" height="705.09998" />
  <linearGradient id="river_2_" gradientUnits="userSpaceOnUse" x1="2029.4032" y1="-279.47244" x2="2172.76831" y2="226.36253" gradientTransform="matrix(1 0 0 1 0 343.99988)">
    <stop offset="0.07882" style="stop-color:#C5817E" />
    <stop offset="0.3645" style="stop-color:#57606D" />
    <stop offset="0.6989" style="stop-color:#33434C" />
    <stop offset="1" style="stop-color:#2D3A41" />
  </linearGradient>
  <polygon id="river_1_" class="st1" points="2951.19995,416 1559.90002,416 1258.40002,416.29999 1425.5,326.60001 
	1559.90002,244.79999 2951.19995,244.79999 " />
  <g id="mountain_1_" class="st2">

    <linearGradient id="SVGID_1_" gradientUnits="userSpaceOnUse" x1="1729.90002" y1="-99.14008" x2="1729.90002" y2="-232.34161" gradientTransform="matrix(1 0 0 1 0 343.99988)">
      <stop offset="0" style="stop-color:#425B6A" />
      <stop offset="1" style="stop-color:#30414A" />
    </linearGradient>
    <polygon class="st3" points="1526.69995,246.79999 1510.80005,246.89999 1511.5,245 1565.09998,215.5 1582.40002,211 
		1587.09998,202.5 1596.69995,199.29999 1604.30005,194.29999 1615.40002,200.5 1620,201.70001 1629.19995,200.39999 
		1649.80005,185.29999 1674.30005,168.29999 1682.30005,169.39999 1701.30005,150 1708.80005,153.5 1712.5,147.89999 
		1720.80005,144.5 1728.80005,135.5 1736.5,130.70001 1746,119.79999 1752.19995,122.79999 1761.80005,130.60001 
		1771.80005,138.70001 1780.40002,141.79999 1785.09998,145.60001 1786.69995,146.29999 1793.80005,144.29999 1797.69995,148.20001 
		1802,152.5 1806.40002,156.89999 1809,155.20001 1819.5,163.89999 1831.40002,172.20001 1841.80005,182.70001 
		1842.30005,185.20001 1848,184.60001 1853.90002,188.60001 1858.5,188.60001 1877.40002,202.29999 1949,246.79999 	" />

    <linearGradient id="SVGID_2_" gradientUnits="userSpaceOnUse" x1="1873.88782" y1="-85.53057" x2="1981.06226" y2="-133.66505" gradientTransform="matrix(1 0 0 1 0 343.99988)">
      <stop offset="0" style="stop-color:#475E6D" />
      <stop offset="1" style="stop-color:#30414A" />
    </linearGradient>
    <polygon class="st4" points="1970.30005,246.79999 2003.5,246.79999 1958.90002,230.5 1922.5,211.10001 1904.69995,199.79999 
		1895.09998,202.39999 1877.80005,215.89999 1867.19995,222.79999 1851.40002,233 1838.69995,239.20001 1819.5,246.79999 
		1822.09998,246.79999 	" />
    <g class="st5">

      <linearGradient id="SVGID_3_" gradientUnits="userSpaceOnUse" x1="1737.69995" y1="-201.79988" x2="1806.40002" y2="-201.79988" gradientTransform="matrix(1 0 0 1 0 343.99988)">
        <stop offset="0" style="stop-color:#FDD8CD" />
        <stop offset="1" style="stop-color:#E9B8AD" />
      </linearGradient>
      <polygon class="st6" points="1760.09998,144.39999 1752.5,135.5 1749.09998,122.60001 1746,119.79999 1752.19995,122.79999 
			1761.80005,130.60001 1771.80005,138.70001 1780.40002,141.79999 1785.09998,145.60001 1788,148.60001 1791.09998,149.89999 
			1793.80005,144.29999 1806.40002,156.89999 1801.30005,159.79999 1799.69995,163.20001 1796.30005,160.39999 1789.80005,163 
			1781.90002,156.89999 1774.80005,152.10001 1785.80005,164.20001 1784.19995,164.60001 1776.40002,159.70001 1770.5,153.70001 
			1764.09998,148.60001 1766.80005,154.39999 1763,154.5 1748,140.5 1737.69995,131.60001 1744.59998,134.70001 
			1748.90002,135.60001 		" />
      <polygon class="st7" points="1763.09998,164.20001 1767.59998,169.89999 1762.90002,167.60001 1755,165.5 1763.19995,173.70001 
			1770.30005,178.10001 1770.30005,178.10001 1771.30005,179.10001 1777.09998,176.70001 1779.5,175.70001 		" />

      <linearGradient id="SVGID_4_" gradientUnits="userSpaceOnUse" x1="1802.35461" y1="-166.49843" x2="1875.80334" y2="-118.98634" gradientTransform="matrix(1 0 0 1 0 343.99988)">
        <stop offset="0" style="stop-color:#FDD8CD" />
        <stop offset="1" style="stop-color:#E9B8AD" />
      </linearGradient>
      <polygon class="st8" points="1881.40002,204.89999 1868.90002,196.10001 1858.5,188.60001 1859.09998,193.29999 
			1853.90002,188.60001 1848,184.60001 1846.19995,184.79999 1841.80005,182.70001 1835.69995,176.5 1831.40002,172.20001 
			1822.80005,166.10001 1819.5,163.89999 1809,155.20001 1807.80005,164.70001 1809.69995,171.5 1796.30005,160.39999 
			1793.59998,166.79999 1795.19995,169.39999 1806.90002,180.20001 1797.09998,174.70001 1787.40002,171.70001 1790,178.5 
			1795.59998,182.5 1807.69995,193.39999 1804.30005,193 1807.90002,197 1792.69995,191.70001 1789.90002,191.79999 1778.09998,184 
			1778.69995,188.79999 1792.40002,197.60001 1797.5,198.39999 1830.09998,207.20001 1822.40002,201.79999 1841.30005,209.79999 
			1852.19995,210.70001 1855.59998,211 1829.5,189.10001 1862.09998,209.60001 1874.5,214.29999 1877.80005,215.89999 
			1887.19995,208.60001 		" />

      <linearGradient id="SVGID_5_" gradientUnits="userSpaceOnUse" x1="1904.19995" y1="-128.84988" x2="1958.84326" y2="-128.84988" gradientTransform="matrix(1 0 0 1 0 343.99988)">
        <stop offset="0" style="stop-color:#FDD8CD" />
        <stop offset="1" style="stop-color:#BF8980" />
      </linearGradient>
      <polygon class="st9" points="1914.59998,220.70001 1905.19995,213.39999 1914.90002,218.79999 1913.59998,216.89999 
			1917.59998,219 1906.40002,206.70001 1904.19995,202.60001 1906.40002,203.79999 1904.69995,199.79999 1922.5,211.10001 
			1958.90002,230.5 1937.80005,223.70001 1927.19995,217.89999 1934.19995,224.10001 1927.80005,222.39999 1923.59998,225 		" />
    </g>
  </g>
  <g id="mountain_-_foreground_1_">

    <linearGradient id="SVGID_6_" gradientUnits="userSpaceOnUse" x1="1506.69995" y1="-129.09988" x2="1829.09998" y2="-129.09988" gradientTransform="matrix(1 0 0 1 0 343.99988)">
      <stop offset="0" style="stop-color:#3B4952" />
      <stop offset="0.6358" style="stop-color:#3F515E" />
      <stop offset="0.9998" style="stop-color:#4E6271" />
    </linearGradient>
    <polygon class="st10" points="1829.09998,246.79999 1783.40002,223.60001 1765.69995,213.20001 1752,205.10001 
		1747.30005,202.29999 1738,195.10001 1726.5,185.89999 1723.09998,185.79999 1718.40002,183 1707.5,190.10001 
		1705.80005,188.89999 1688.30005,198.89999 1685.5,198.89999 1680.30005,201.39999 1680.30005,203.60001 1676.19995,205.5 
		1668.80005,210 1663,213 1656.5,216.20001 1655.19995,216.89999 1648,218.60001 1637.90002,213.79999 1630.59998,208.89999 
		1623.19995,202.89999 1619.40002,201.70001 1615.5,200.5 1604.40002,194.29999 1596.90002,199.29999 1587.30005,202.5 1582.5,211 
		1565.90002,215.20001 1511,245.29999 1506.69995,246.79999 1526.59998,246.79999 	" />

    <linearGradient id="SVGID_7_" gradientUnits="userSpaceOnUse" x1="1724.63562" y1="-151.29707" x2="1769.17566" y2="-116.06667" gradientTransform="matrix(1 0 0 1 0 343.99988)">
      <stop offset="0.02882" style="stop-color:#FDD8CD" />
      <stop offset="0.4645" style="stop-color:#D9A499" />
      <stop offset="1" style="stop-color:#BF8980" />
    </linearGradient>
    <polygon class="st11" points="1786.5,225.5 1760.40002,210.39999 1747.19995,201.5 1739,195.79999 1726.5,185.89999 
		1731.40002,194.89999 1725.30005,191.79999 1726,193.10001 1725.80005,194.29999 1727.5,195.89999 1731.69995,200.60001 
		1742,207.70001 1742.90002,210.39999 1728.90002,200.60001 1724.59998,198.10001 1714.09998,191.20001 1715.09998,193.60001 
		1705.80005,188.89999 1706.80005,191.20001 1709.40002,193.39999 1710.30005,195.5 1710.30005,197.5 1737.19995,213.70001 
		1741.59998,215.20001 1734.69995,209.29999 1746.59998,215.39999 1756.30005,218 1768,220.89999 1761.09998,215.29999 
		1772.90002,222.10001 	" />
  </g>
  <path id="land-right3_1_" class="st12" d="M2673.80005,226.60001h-40.19995l-59.5-1.10001h-10.19995l-22.30005-1.10001
	L2507.2002,221l-24.3999,4.5l-20.3999-3.5l-21.30005,4.10001l-32.5-12l-38.40015,7l-51.5,8.29999l-54.3999-2.29999l-28.5,3
	l-12.8999,7l-13.1001-6.20001l-56.5,3.89999l-51.69995-3.89999l-48.59985,8.89999L1991.60034,242l-68.69995,3.79999l-18.59998,1
	L1919.20044,251l8.19995,1l23.90002,2.5l41.90002,3.79999l87.80005,10.5l93.80005-1.60001l372.30005-7.60001
	c0,0,136.3999,5,136.3999-23.70001L2673.80005,226.60001z" />
  <linearGradient id="SVGID_8_" gradientUnits="userSpaceOnUse" x1="2663.19971" y1="595.0141" x2="2398.4729" y2="245.34799" gradientTransform="matrix(1 0 0 -1 0 560)">
    <stop offset="0" style="stop-color:#F4B49C" />
    <stop offset="0.3648" style="stop-color:#5A576C" />
    <stop offset="0.9951" style="stop-color:#3D4E59" />
  </linearGradient>
  <polygon class="st13" points="2947.1001,200.29999 2924.5,204.39999 2914.8999,200.39999 2874.19995,199.39999 2819.5,207.70001 
	2761.69995,205.39999 2731.3999,208.39999 2671,202.29999 2606.8999,214.60001 2540.8999,218.79999 2481.19995,216.70001 
	2440.19995,228.70001 2382.30005,230.79999 2356.19995,237.10001 2308.69995,241.5 2249.1001,244.60001 2213.80005,250.89999 
	2187.1001,244.5 2161,250.89999 2139,248.5 2112.8999,250.89999 2105.80005,258.39999 2054.5,262.29999 2034.59998,267.89999 
	2011.90002,273.79999 2005.80005,275.60001 1924.30005,283.39999 1961.19995,285.29999 2184.69995,283.70001 2217.69995,289 
	2390,289 2736.1001,285.39999 2736.1001,259.20001 2947.6001,246.89999 " />
  <linearGradient id="SVGID_9_" gradientUnits="userSpaceOnUse" x1="2506.73291" y1="518.72882" x2="2436.64331" y2="-144.42241" gradientTransform="matrix(1 0 0 -1 0 560)">
    <stop offset="0" style="stop-color:#F6D59B" />
    <stop offset="0.1469" style="stop-color:#BEA39B" />
    <stop offset="0.2595" style="stop-color:#676279" />
    <stop offset="0.4019" style="stop-color:#3A4C57" />
    <stop offset="1" style="stop-color:#3A4850" />
  </linearGradient>
  <polygon class="st14" points="2920.5,205.20001 2855.6001,196.39999 2821.80005,205.20001 2793.3999,216.10001 2774.5,216.20001 
	2739.30005,212 2704.19995,226.70001 2683.3999,221.39999 2659.80005,230.79999 2606,239.60001 2587.1001,242.79999 
	2575.6001,240.5 2575.6001,239.5 2566.69995,238.70001 2564.1001,238.20001 2563.5,238.39999 2542.6001,236.39999 
	2503.6001,228.89999 2486.19995,233.39999 2457.80005,243.20001 2440.19995,255.89999 2415.5,247.29999 2396.6001,247.39999 
	2380.3999,247.39999 2361.30005,243.20001 2326.30005,257.89999 2305.5,252.60001 2281.80005,262 2256.19995,266.29999 
	2228.1001,270.79999 2209.19995,274 2186.19995,269.39999 2168.80005,275 2141,292.60001 2112.8999,302.20001 2097.80005,306.79999 
	2079.5,306.79999 2054.5,312.89999 2037,313.39999 2014.09998,323.89999 2002.09998,323.89999 1990.69995,328 2074.5,328.79999 
	2061.30005,333.20001 2047.90002,333.20001 2036.69995,336.70001 2019.09998,338.5 2036.69995,340.60001 2058.1001,344.60001 
	2074.5,344.60001 2090.30005,344.60001 2102.1001,349.39999 2127.80005,355.39999 2142.80005,355.39999 2155.69995,355.39999 
	2167.5,355.70001 2171.5,356.29999 2195.3999,359.5 2211.19995,362 2211.19995,361.5 2244.5,365.89999 2323.3999,398.79999 
	2358.80005,395 2418.1001,410.20001 2480.1001,414.09998 2597.8999,415.90002 2953.5,409.90002 2953.5,208.29999 " />
  <polygon id="cloud7" class="st15" points="2548.30005,202.29999 2001,202.29999 1995.59998,206.5 2001,210.70001 
	2148.1001,210.70001 2146.30005,214.39999 2146.30005,214.39999 2153.80005,220.29999 2536.3999,220.29999 2553.69995,206.5 " />
  <path id="cloud5" class="st15" d="M2072.8999,191.29999l6.6001-5.10001h749c3.6001,0,6.6001,2.29999,6.6001,5.10001l0,0
	c0,2.79999-3,5.10001-6.6001,5.10001h-749L2072.8999,191.29999z" />
  <polygon id="cloud6" class="st15" points="1243.09998,217.79999 1610.5,217.79999 1616.80005,213.20001 1616.80005,213.20001 
	1610.5,208.70001 1243.09998,208.70001 1236.69995,213.20001 1236.69995,213.20001 " />
  <polygon id="cloud4" class="st16" points="1955.40002,162.89999 2254.3999,162.89999 2262.69995,157 2262.69995,157 
	2254.3999,151.10001 1955.40002,151.10001 1947,157 1947,157 " />
  <path id="cloud3" class="st17" d="M2344.80005,155.89999h539.30005c3.19995,0,5.8999-1.70001,5.8999-3.70001l0,0
	c0-2-2.69995-3.70001-5.8999-3.70001h-539.30005l-5.90015,3.70001l0,0L2344.80005,155.89999z" />
  <polygon class="st18" points="2668,171.60001 2196.1001,171.60001 2192.30005,169.29999 2192.30005,169.29999 2196.1001,166.89999 
	2668,166.89999 2671.80005,169.29999 2671.80005,169.29999 " />
  <g id="stars_1_">

    <rect x="1325.75647" y="-141.34801" transform="matrix(0.70711 0.70711 -0.70711 0.70711 290.75693 -979.84534)" class="st19" width="4.79994" height="4.79995" />

    <rect x="1469.55798" y="-198.34637" transform="matrix(0.70711 0.70711 -0.70711 0.70711 292.17148 -1098.05713)" class="st19" width="3.99996" height="3.99996" />

    <rect x="1733.58093" y="-111.66242" transform="matrix(0.70711 0.70711 -0.70711 0.70711 430.19684 -1259.11194)" class="st19" width="2.80002" height="2.79997" />

    <rect x="1646.49463" y="-250.22841" transform="matrix(0.70711 0.70711 -0.70711 0.70711 307.3089 -1238.36621)" class="st19" width="3.99996" height="3.99996" />

    <rect x="1608.50427" y="-164.2847" transform="matrix(0.70711 0.70711 -0.70711 0.70711 357.35315 -1186.49622)" class="st20" width="4.8" height="4.79995" />

    <rect x="2147.10107" y="-244.42801" transform="matrix(0.70711 0.70711 -0.70711 0.70711 458.43463 -1590.81519)" class="st19" width="4.8" height="4.79996" />

    <rect x="1736.04895" y="-57.63387" transform="matrix(0.70711 0.70711 -0.70711 0.70711 470.12363 -1245.44666)" class="st19" width="4.8" height="4.79996" />

    <rect x="1885.76819" y="-272.98096" transform="matrix(0.70711 0.70711 -0.70711 0.70711 361.30203 -1414.22217)" class="st19" width="3.99996" height="3.99996" />

    <rect x="1725.32605" y="34.10626" transform="matrix(0.70711 0.70711 -0.70711 0.70711 531.85303 -1210.99438)" class="st19" width="4.8" height="4.79996" />

    <rect x="1756.15393" y="-252.15915" transform="matrix(0.70711 0.70711 -0.70711 0.70711 338.0621 -1316.47241)" class="st19" width="3.99996" height="3.99996" />

    <rect x="1621.90552" y="-31.93105" transform="matrix(0.70711 0.70711 -0.70711 0.70711 454.86642 -1157.20691)" class="st19" width="4.8" height="4.79996" />

    <rect x="1797.24292" y="-137.85103" transform="matrix(0.70711 0.70711 -0.70711 0.70711 431.32486 -1312.2124)" class="st19" width="4.8" height="4.79995" />

    <rect x="1295.84839" y="-25.04467" transform="matrix(0.70711 0.70711 -0.70711 0.70711 364.2359 -924.63263)" class="st20" width="4.79994" height="4.79996" />

    <rect x="1398.09058" y="-174.61394" transform="matrix(0.70711 0.70711 -0.70711 0.70711 288.42053 -1040.73669)" class="st19" width="4.79994" height="4.79995" />

    <rect x="1660.12646" y="-78.70777" transform="matrix(0.70711 0.70711 -0.70711 0.70711 432.98495 -1197.93372)" class="st19" width="4.8" height="4.79996" />

    <rect x="1506.35498" y="-136.01633" transform="matrix(0.70711 0.70711 -0.70711 0.70711 347.42307 -1105.98621)" class="st19" width="4.8" height="4.79995" />

    <rect x="1269.72559" y="20.36505" transform="matrix(0.70711 0.70711 -0.70711 0.70711 388.69424 -892.86084)" class="st19" width="4.79994" height="4.79996" />

    <rect x="1601.16504" y="-65.51725" transform="matrix(0.70711 0.70711 -0.70711 0.70711 425.04266 -1152.3783)" class="st19" width="4.8" height="4.79996" />

    <rect x="1353.45068" y="-201.99591" transform="matrix(0.70711 0.70711 -0.70711 0.70711 255.98384 -1017.19153)" class="st19" width="4.79994" height="4.79995" />

    <rect x="1296.51367" y="-252.32576" transform="matrix(0.70711 0.70711 -0.70711 0.70711 203.31877 -991.50653)" class="st19" width="3.99996" height="3.99996" />

    <rect x="1216.58765" y="-126.33952" transform="matrix(0.70711 0.70711 -0.70711 0.70711 269.39471 -898.25549)" class="st19" width="4.79994" height="4.79995" />

    <rect x="1215.34241" y="-227.42842" transform="matrix(0.70711 0.70711 -0.70711 0.70711 197.54936 -926.98322)" class="st19" width="4.79994" height="4.79996" />

    <rect x="1362.16675" y="-285.95206" transform="matrix(0.70711 0.70711 -0.70711 0.70711 198.77074 -1047.77917)" class="st19" width="3.99996" height="3.99996" />

    <rect x="1464.56042" y="-172.49486" transform="matrix(0.70711 0.70711 -0.70711 0.70711 309.38751 -1087.11731)" class="st20" width="4.8" height="4.79995" />

    <rect x="1913.91333" y="-92.29294" transform="matrix(0.70711 0.70711 -0.70711 0.70711 497.71124 -1381.36719)" class="st19" width="4.8" height="4.79995" />

    <rect x="1536.45068" y="-8.91614" transform="matrix(0.70711 0.70711 -0.70711 0.70711 446.1113 -1090.04028)" class="st19" width="4.8" height="4.79996" />

    <rect x="1486.45764" y="-281.95313" transform="matrix(0.70711 0.70711 -0.70711 0.70711 238.40239 -1134.66052)" class="st19" width="4.8" height="4.79996" />

    <rect x="2152.78076" y="-260.96252" transform="matrix(0.70711 0.70711 -0.70711 0.70711 448.40652 -1599.67419)" class="st19" width="4.8" height="4.79996" />

    <rect x="1589.84302" y="-180.17538" transform="matrix(0.70711 0.70711 -0.70711 0.70711 340.651 -1177.95508)" class="st19" width="4.8" height="4.79995" />

    <rect x="1460.30005" y="-34.43155" transform="matrix(0.70711 0.70711 -0.70711 0.70711 405.7652 -1043.66699)" class="st20" width="4.8" height="4.79996" />

    <rect x="1412.17419" y="-125.36766" transform="matrix(0.70711 0.70711 -0.70711 0.70711 327.36792 -1036.27148)" class="st20" width="4.79994" height="4.79995" />

    <rect x="1690.5752" y="-163.53284" transform="matrix(0.70711 0.70711 -0.70711 0.70711 380.92282 -1243.89478)" class="st19" width="2.80002" height="2.79997" />

    <rect x="1176.56567" y="-61.56393" transform="matrix(0.70711 0.70711 -0.70711 0.70711 303.4758 -850.98328)" class="st19" width="4.79994" height="4.79996" />

    <rect x="1476.90576" y="-21.31631" transform="matrix(0.70711 0.70711 -0.70711 0.70711 419.90277 -1051.56763)" class="st19" width="4.8" height="4.79996" />

    <rect x="1533.07397" y="-149.06516" transform="matrix(0.70711 0.70711 -0.70711 0.70711 346.02197 -1128.70129)" class="st19" width="4.8" height="4.79995" />

    <rect x="1490.68323" y="-151.70412" transform="matrix(0.70711 0.70711 -0.70711 0.70711 330.88998 -1099.14734)" class="st19" width="3.09995" height="3.09997" />

    <rect x="1306.00476" y="-46.63046" transform="matrix(0.70711 0.70711 -0.70711 0.70711 351.0972 -937.78461)" class="st19" width="3.09995" height="3.09997" />

    <rect x="1284.32764" y="-181.42072" transform="matrix(0.70711 0.70711 -0.70711 0.70711 249.43703 -961.93573)" class="st19" width="3.09995" height="3.09997" />

    <rect x="1357.72498" y="8.85228" transform="matrix(0.70711 0.70711 -0.70711 0.70711 405.47794 -958.10577)" class="st19" width="3.09995" height="3.09998" />

    <rect x="1343.95447" y="-77.92632" transform="matrix(0.1174 0.99308 -0.99308 0.1174 1111.69641 -1403.60999)" class="st19" width="3.10002" height="3.10005" />

    <rect x="2289.75342" y="-252.44249" transform="matrix(0.70711 0.70711 -0.70711 0.70711 494.54944 -1694.03296)" class="st19" width="4.8" height="4.79996" />

    <rect x="2232.75732" y="-303.12146" transform="matrix(0.70711 0.70711 -0.70711 0.70711 442.02026 -1668.57422)" class="st19" width="4.8" height="4.79996" />

    <rect x="1581.78333" y="-264.33984" transform="matrix(0.70711 0.70711 -0.70711 0.70711 278.7771 -1196.9071)" class="st19" width="4.8" height="4.79996" />

    <rect x="1706.98218" y="-264.28613" transform="matrix(0.70711 0.70711 -0.70711 0.70711 315.48499 -1285.42041)" class="st19" width="4.8" height="4.79996" />

    <rect x="1313.03394" y="-92.10806" transform="matrix(0.70711 0.70711 -0.70711 0.70711 321.14847 -956.13715)" class="st20" width="3.39999" height="3.39997" />

    <rect x="1207.49915" y="-21.68853" transform="matrix(0.70711 0.70711 -0.70711 0.70711 340.73218 -861.17731)" class="st19" width="4.79994" height="4.79996" />

    <rect x="1423.88306" y="-65.3513" transform="matrix(0.70711 0.70711 -0.70711 0.70711 372.53534 -1026.6825)" class="st19" width="3.39999" height="3.39997" />

    <rect x="1532.30469" y="-128.19627" transform="matrix(0.70711 0.70711 -0.70711 0.70711 360.55319 -1122.04504)" class="st20" width="4.8" height="4.79995" />

    <rect x="1346.64783" y="-85.33193" transform="matrix(0.70711 0.70711 -0.70711 0.70711 335.78522 -977.92114)" class="st20" width="3.39999" height="3.39997" />

    <rect x="1776.44214" y="-47.49856" transform="matrix(0.70711 0.70711 -0.70711 0.70711 489.12128 -1271.04041)" class="st19" width="4.8" height="4.79996" />

    <rect x="1382.10254" y="-121.14445" transform="matrix(0.70711 0.70711 -0.70711 0.70711 320.84641 -1013.48065)" class="st20" width="3.39999" height="3.39997" />

    <rect x="1549.83618" y="-74.35052" transform="matrix(0.70711 0.70711 -0.70711 0.70711 403.76273 -1118.67053)" class="st20" width="4.8" height="4.79996" />

    <rect x="1631.41357" y="-132.8658" transform="matrix(0.70711 0.70711 -0.70711 0.70711 385.87964 -1193.32751)" class="st19" width="3.99996" height="3.99996" />

    <rect x="1573.07764" y="-233.80717" transform="matrix(0.70711 0.70711 -0.70711 0.70711 297.81711 -1181.80847)" class="st19" width="4.8" height="4.79996" />

    <rect x="1604.68054" y="26.96136" transform="matrix(0.70711 0.70711 -0.70711 0.70711 491.4646 -1127.77783)" class="st19" width="4.8" height="4.79996" />

    <rect x="1424.10657" y="-237.83258" transform="matrix(0.70711 0.70711 -0.70711 0.70711 250.93811 -1077.4834)" class="st19" width="3.99996" height="3.99996" />

    <rect x="1372.70642" y="-144.04298" transform="matrix(0.70711 0.70711 -0.70711 0.70711 301.90262 -1013.5434)" class="st19" width="3.39999" height="3.39997" />

    <rect x="1474.70959" y="-1.60389" transform="matrix(0.70711 0.70711 -0.70711 0.70711 432.49829 -1043.95105)" class="st19" width="3.39999" height="3.39996" />

    <rect x="1445.98657" y="-119.74582" transform="matrix(0.70711 0.70711 -0.70711 0.70711 340.54657 -1058.24377)" class="st19" width="3.39999" height="3.39997" />

    <rect x="1331.98108" y="-200.1291" transform="matrix(0.70711 0.70711 -0.70711 0.70711 251.01556 -1001.46344)" class="st19" width="4.79994" height="4.79995" />

    <rect x="1897.45142" y="-17.99755" transform="matrix(0.70711 0.70711 -0.70711 0.70711 545.42444 -1347.96631)" class="st19" width="4.8" height="4.79996" />

    <rect x="1891.96936" y="-186.03867" transform="matrix(0.70711 0.70711 -0.70711 0.70711 424.99576 -1393.30798)" class="st19" width="4.8" height="4.79995" />

    <rect x="1301.24219" y="-118.77264" transform="matrix(0.70711 0.70711 -0.70711 0.70711 298.84006 -955.60901)" class="st19" width="3.39999" height="3.39997" />

    <rect x="1738.57446" y="-212.34903" transform="matrix(0.70711 0.70711 -0.70711 0.70711 361.46323 -1292.54749)" class="st19" width="4.8" height="4.79995" />

    <rect x="1717.0564" y="-112.14382" transform="matrix(0.70711 0.70711 -0.70711 0.70711 425.01654 -1247.56836)" class="st19" width="2.80002" height="2.79997" />

    <rect x="1245.94141" y="-80.17253" transform="matrix(0.70711 0.70711 -0.70711 0.70711 309.78723 -905.13763)" class="st19" width="3.09995" height="3.09997" />

    <rect x="2427.22461" y="-297.23724" transform="matrix(0.70711 0.70711 -0.70711 0.70711 503.13913 -1804.35986)" class="st19" width="4.8" height="4.79996" />

    <rect x="2073.61572" y="-84.68002" transform="matrix(-0.92819 -0.3721 0.3721 -0.92819 4032.25391 611.87311)" class="st19" width="3.1" height="3.10002" />

    <rect x="2146.50732" y="30.72411" transform="matrix(-0.92819 -0.3721 0.3721 -0.92819 4129.86133 861.5174)" class="st19" width="3.1" height="3.10003" />

    <rect x="2004.19556" y="-115.38531" transform="matrix(-0.92819 -0.3721 0.3721 -0.92819 3909.82373 526.8363)" class="st19" width="3.1" height="3.10002" />

    <rect x="2050.97314" y="-41.11906" transform="matrix(-0.4985 -0.86689 0.86689 -0.4985 3109.99878 1720.02234)" class="st19" width="3.1" height="3.10003" />

    <rect x="2336.52197" y="-75.21177" transform="matrix(-0.92819 -0.3721 0.3721 -0.92819 4535.66504 727.95654)" class="st19" width="3.1" height="3.10002" />

    <rect x="2426.29883" y="-95.41492" transform="matrix(-0.92819 -0.3721 0.3721 -0.92819 4716.28955 722.40668)" class="st19" width="3.1" height="3.10002" />

    <rect x="2384.32324" y="-61.88683" transform="matrix(-0.92819 -0.3721 0.3721 -0.92819 4623.11035 771.78137)" class="st19" width="3.40005" height="3.40002" />

    <rect x="1972.12158" y="-21.30897" transform="matrix(-0.92819 -0.3721 0.3721 -0.92819 3813.20679 696.64417)" class="st19" width="3.40005" height="3.40002" />

    <rect x="2255.19092" y="-11.0793" transform="matrix(-0.92819 -0.3721 0.3721 -0.92819 4355.21289 821.6983)" class="st19" width="3.40005" height="3.40002" />

    <rect x="2317.21655" y="-12.31129" transform="matrix(-0.92819 -0.3721 0.3721 -0.92819 4475.26855 842.40234)" class="st19" width="3.40005" height="3.40002" />

    <rect x="2050.01758" y="30.80083" transform="matrix(-0.92819 -0.3721 0.3721 -0.92819 3944.01514 826.10681)" class="st19" width="3.40005" height="3.40002" />

    <rect x="1973.22693" y="37.30206" transform="matrix(-0.92819 -0.3721 0.3721 -0.92819 3793.52905 810.06885)" class="st19" width="3.40005" height="3.40002" />

    <rect x="2105.91211" y="-20.4126" transform="matrix(-0.92819 -0.3721 0.3721 -0.92819 4070.84741 748.15564)" class="st19" width="3.40005" height="3.40002" />

    <rect x="2141.91455" y="-77.5871" transform="matrix(-0.92819 -0.3721 0.3721 -0.92819 4161.30811 650.9635)" class="st19" width="3.1" height="3.10002" />

    <rect x="2382.99268" y="-76.78102" transform="matrix(-0.92819 -0.3721 0.3721 -0.92819 4625.85352 742.22229)" class="st19" width="3.1" height="3.10002" />

    <rect x="2417.11694" y="-144.38232" transform="matrix(-0.92819 -0.3721 0.3721 -0.92819 4716.80615 624.57147)" class="st19" width="3.1" height="3.10002" />

    <rect x="2313.68115" y="-194.20828" transform="matrix(-0.99171 -0.1285 0.1285 -0.99171 4637.60791 -84.40719)" class="st19" width="4.8" height="4.79995" />

    <rect x="1989.4823" y="-227.29706" transform="matrix(-0.99171 -0.1285 0.1285 -0.99171 3996.15015 -191.97034)" class="st19" width="4.8" height="4.79996" />

    <rect x="1952.58337" y="-156.69598" transform="matrix(-0.99171 -0.1285 0.1285 -0.99171 3913.58594 -56.09507)" class="st19" width="4.8" height="4.79995" />

    <rect x="1843.28442" y="-121.19717" transform="matrix(-0.99171 -0.1285 0.1285 -0.99171 3691.33252 0.5632)" class="st19" width="4.8" height="4.79995" />

    <rect x="2136.8811" y="-152.29645" transform="matrix(-0.99171 -0.1285 0.1285 -0.99171 4280.08789 -23.65)" class="st19" width="4.8" height="4.79995" />

    <rect x="2004.5835" y="-162.19785" transform="matrix(-0.99171 -0.1285 0.1285 -0.99171 4017.86206 -60.37109)" class="st19" width="4.8" height="4.79995" />

    <rect x="2328.58032" y="-164.49596" transform="matrix(-0.99171 -0.1285 0.1285 -0.99171 4663.46484 -23.31427)" class="st19" width="4.8" height="4.79995" />

    <rect x="1796.48584" y="-229.90688" transform="matrix(-0.99171 -0.1285 0.1285 -0.99171 3612.09277 -221.9686)" class="st19" width="4.8" height="4.79996" />

    <rect x="2211.6814" y="-156.90778" transform="matrix(-0.99171 -0.1285 0.1285 -0.99171 4429.66113 -23.22249)" class="st19" width="4.8" height="4.79995" />

    <rect x="2020.48364" y="-176.89688" transform="matrix(-0.99171 -0.1285 0.1285 -0.99171 4051.41943 -87.6041)" class="st19" width="4.8" height="4.79996" />

    <rect x="2328.78076" y="-120.60831" transform="matrix(-0.99171 -0.1285 0.1285 -0.99171 4658.22412 64.12292)" class="st19" width="4.8" height="4.79996" />

    <rect x="2248.89917" y="-94.18864" transform="matrix(0.70711 0.70711 -0.70711 0.70711 594.4859 -1618.79321)" class="st19" width="4.8" height="4.79995" />

    <rect x="2193.42456" y="-66.75665" transform="matrix(0.70711 0.70711 -0.70711 0.70711 597.63513 -1571.5321)" class="st19" width="4.8" height="4.79996" />

    <rect x="2346.76514" y="16.94111" transform="matrix(0.70711 0.70711 -0.70711 0.70711 701.73077 -1655.4458)" class="st19" width="4.8" height="4.79996" />

    <rect x="2380.11841" y="-215.63637" transform="matrix(0.70711 0.70711 -0.70711 0.70711 547.0426 -1747.15051)" class="st19" width="4.8" height="4.79996" />

    <rect x="2364.67627" y="-141.31212" transform="matrix(0.70711 0.70711 -0.70711 0.70711 595.07489 -1714.46204)" class="st19" width="4.8" height="4.79995" />

    <rect x="2201.39063" y="-273.92902" transform="matrix(0.70711 0.70711 -0.70711 0.70711 452.62531 -1637.49219)" class="st19" width="3.09995" height="3.09997" />

    <rect x="2218.32251" y="-211.38071" transform="matrix(0.70711 0.70711 -0.70711 0.70711 501.96286 -1631.20703)" class="st19" width="3.39999" height="3.39997" />

    <rect x="2163.07495" y="-172.51036" transform="matrix(0.70711 0.70711 -0.70711 0.70711 513.1167 -1580.69397)" class="st19" width="3.09995" height="3.09997" />

    <rect x="2268.86499" y="-420.43121" transform="matrix(0.70711 0.70711 -0.70711 0.70711 369.64542 -1728.46545)" class="st19" width="4.8" height="4.79994" />

    <rect x="2213.34961" y="-393.09958" transform="matrix(0.70711 0.70711 -0.70711 0.70711 372.71167 -1681.20471)" class="st19" width="4.8" height="4.79996" />

    <rect x="2900.30835" y="-400.39142" transform="matrix(0.70711 0.70711 -0.70711 0.70711 568.76117 -2169.09375)" class="st19" width="4.8" height="4.79996" />

    <rect x="2475.49707" y="-396.46732" transform="matrix(0.70711 0.70711 -0.70711 0.70711 447.11157 -1867.5575)" class="st19" width="4.8" height="4.79996" />

    <rect x="2409.38843" y="-421.9823" transform="matrix(0.70711 0.70711 -0.70711 0.70711 409.70694 -1828.28479)" class="st19" width="4.8" height="4.79994" />

    <rect x="2642.88843" y="-412.72772" transform="matrix(0.1174 0.99308 -0.99308 0.1174 1925.65173 -2989.05811)" class="st19" width="3.10014" height="3.10005" />

    <rect x="2722.9563" y="-400.25461" transform="matrix(0.70711 0.70711 -0.70711 0.70711 516.21271 -2043.35693)" class="st19" width="3.39987" height="3.39996" />

    <rect x="2544.98535" y="-414.9054" transform="matrix(0.70711 0.70711 -0.70711 0.70711 453.57651 -1921.74133)" class="st19" width="3.10007" height="3.09998" />

    <rect x="1916.62708" y="-392.32147" transform="matrix(0.70711 0.70711 -0.70711 0.70711 286.35388 -1471.16248)" class="st19" width="4.8" height="4.79996" />

    <rect x="1840.70447" y="-413.49515" transform="matrix(0.70711 0.70711 -0.70711 0.70711 249.14462 -1423.67871)" class="st19" width="4.8" height="4.79994" />

    <rect x="1781.8136" y="-400.27573" transform="matrix(0.70711 0.70711 -0.70711 0.70711 241.24342 -1378.16467)" class="st19" width="4.8" height="4.79996" />

    <rect x="2025.19702" y="-397.40588" transform="matrix(0.70711 0.70711 -0.70711 0.70711 313.70807 -1549.07007)" class="st19" width="3.09995" height="3.09998" />

    <rect x="2481.59839" y="-71.29529" transform="matrix(0.70711 0.70711 -0.70711 0.70711 678.82996 -1776.6311)" class="st19" width="4.8" height="4.79996" />

    <rect x="2703.18066" y="-158.10027" transform="matrix(0.70711 0.70711 -0.70711 0.70711 682.34949 -1958.73804)" class="st19" width="4.8" height="4.79995" />

    <rect x="2846.98218" y="-215.09891" transform="matrix(0.70711 0.70711 -0.70711 0.70711 683.76385 -2076.94995)" class="st19" width="3.99996" height="3.99996" />

    <rect x="2465.62085" y="-285.07306" transform="matrix(0.70711 0.70711 -0.70711 0.70711 522.28644 -1827.65723)" class="st19" width="3.39987" height="3.39996" />

    <rect x="2775.54395" y="-191.53719" transform="matrix(0.70711 0.70711 -0.70711 0.70711 679.9007 -2019.69995)" class="st19" width="4.8" height="4.79995" />

    <rect x="2883.80859" y="-152.98051" transform="matrix(0.70711 0.70711 -0.70711 0.70711 738.87439 -2084.96167)" class="st19" width="4.8" height="4.79995" />

    <rect x="2647.17896" y="3.44194" transform="matrix(0.70711 0.70711 -0.70711 0.70711 780.17456 -1871.82422)" class="st19" width="4.8" height="4.79996" />

    <rect x="2496.86743" y="-299.61597" transform="matrix(0.70711 0.70711 -0.70711 0.70711 521.85504 -1854.30151)" class="st19" width="4.8" height="4.79996" />

    <rect x="2730.90454" y="-218.91852" transform="matrix(0.70711 0.70711 -0.70711 0.70711 647.4646 -1996.15503)" class="st19" width="4.8" height="4.79996" />

    <rect x="2674.00854" y="-269.14886" transform="matrix(0.70711 0.70711 -0.70711 0.70711 594.88196 -1970.46985)" class="st19" width="3.99996" height="3.99996" />

    <rect x="2514.35986" y="-266.09958" transform="matrix(0.70711 0.70711 -0.70711 0.70711 550.67816 -1856.85388)" class="st19" width="4.8" height="4.79996" />

    <rect x="2594.04126" y="-143.2041" transform="matrix(0.70711 0.70711 -0.70711 0.70711 660.9165 -1877.20178)" class="st19" width="4.8" height="4.79995" />

    <rect x="2592.896" y="-244.39296" transform="matrix(0.70711 0.70711 -0.70711 0.70711 589.02972 -1906.02942)" class="st19" width="4.8" height="4.79996" />

    <rect x="2739.66138" y="-302.77466" transform="matrix(0.70711 0.70711 -0.70711 0.70711 590.33423 -2026.74219)" class="st19" width="3.99996" height="3.99996" />

    <rect x="2863.81152" y="-298.87625" transform="matrix(0.70711 0.70711 -0.70711 0.70711 629.85352 -2113.55347)" class="st19" width="4.8" height="4.79996" />

    <rect x="2553.84839" y="-78.41623" transform="matrix(0.70711 0.70711 -0.70711 0.70711 694.95618 -1829.80518)" class="st19" width="4.8" height="4.79996" />

    <rect x="2487.80981" y="-103.90199" transform="matrix(0.70711 0.70711 -0.70711 0.70711 657.59277 -1790.57349)" class="st19" width="4.8" height="4.79995" />

    <rect x="2854.45972" y="-38.28063" transform="matrix(0.70711 0.70711 -0.70711 0.70711 811.38336 -2030.61401)" class="st19" width="4.8" height="4.79996" />

    <rect x="2868.17822" y="-168.52687" transform="matrix(0.70711 0.70711 -0.70711 0.70711 722.45349 -2078.11084)" class="st19" width="3.10007" height="3.09997" />

    <rect x="2683.49976" y="-63.45343" transform="matrix(0.70711 0.70711 -0.70711 0.70711 742.66052 -1916.74805)" class="st19" width="3.10007" height="3.09997" />

    <rect x="2661.82227" y="-198.24387" transform="matrix(0.70711 0.70711 -0.70711 0.70711 641.00012 -1940.89893)" class="st19" width="3.10007" height="3.09997" />

    <rect x="2735.22021" y="-7.97022" transform="matrix(0.70711 0.70711 -0.70711 0.70711 797.04163 -1937.06921)" class="st19" width="3.10007" height="3.09998" />

    <rect x="2721.43115" y="-94.6842" transform="matrix(0.1174 0.99308 -0.99308 0.1174 2310.81787 -2786.35181)" class="st19" width="3.10014" height="3.10005" />

    <rect x="2584.95313" y="-38.61114" transform="matrix(0.70711 0.70711 -0.70711 0.70711 732.21301 -1840.14087)" class="st19" width="4.8" height="4.79996" />

    <rect x="2801.37842" y="-82.17397" transform="matrix(0.70711 0.70711 -0.70711 0.70711 764.09894 -2005.64612)" class="st19" width="3.39987" height="3.39997" />

    <rect x="2545.1521" y="-202.9579" transform="matrix(0.70711 0.70711 -0.70711 0.70711 603.64484 -1859.84338)" class="st19" width="3.39987" height="3.39997" />

    <rect x="2487.73804" y="-226.21315" transform="matrix(0.70711 0.70711 -0.70711 0.70711 570.3847 -1826.05676)" class="st19" width="3.39987" height="3.39997" />

    <rect x="2801.55981" y="-254.75574" transform="matrix(0.70711 0.70711 -0.70711 0.70711 642.41833 -2056.44653)" class="st19" width="3.99996" height="3.99996" />

    <rect x="2750.08911" y="-160.89561" transform="matrix(0.70711 0.70711 -0.70711 0.70711 693.41205 -1992.43604)" class="st19" width="3.39987" height="3.39997" />

    <rect x="2852.20459" y="-18.42654" transform="matrix(0.70711 0.70711 -0.70711 0.70711 824.06183 -2022.91431)" class="st19" width="3.39987" height="3.39997" />

    <rect x="2823.48145" y="-136.56911" transform="matrix(0.70711 0.70711 -0.70711 0.70711 732.10962 -2037.20728)" class="st19" width="3.39987" height="3.39997" />

    <rect x="2709.43506" y="-216.95157" transform="matrix(0.70711 0.70711 -0.70711 0.70711 642.5672 -1980.39771)" class="st19" width="4.8" height="4.79996" />

    <rect x="2678.69531" y="-135.6955" transform="matrix(0.70711 0.70711 -0.70711 0.70711 690.3205 -1934.57202)" class="st19" width="3.39987" height="3.39997" />

    <rect x="2514.3584" y="-138.70059" transform="matrix(0.70711 0.70711 -0.70711 0.70711 640.76233 -1819.53833)" class="st19" width="4.8" height="4.79995" />

    <rect x="2623.50708" y="-96.9246" transform="matrix(0.70711 0.70711 -0.70711 0.70711 701.42139 -1884.13025)" class="st19" width="3.10007" height="3.09997" />

    <rect x="2932.83984" y="-162.46989" transform="matrix(0.70711 0.70711 -0.70711 0.70711 746.52527 -2122.41138)" class="st19" width="4.8" height="4.79995" />

    <rect x="2907.45581" y="-131.89899" transform="matrix(0.70711 0.70711 -0.70711 0.70711 760.00745 -2095.21826)" class="st19" width="3.39987" height="3.39997" />

    <rect x="1292.63831" y="-429.03766" transform="matrix(0.70711 0.70711 -0.70711 0.70711 77.62954 -1040.6897)" class="st19" width="4.79994" height="4.79994" />

    <rect x="1473.0957" y="-423.80576" transform="matrix(0.70711 0.70711 -0.70711 0.70711 134.18379 -1166.75989)" class="st19" width="4.8" height="4.79994" />

    <rect x="1183.32825" y="-414.12933" transform="matrix(0.70711 0.70711 -0.70711 0.70711 56.15512 -959.02917)" class="st19" width="4.79994" height="4.79994" />

    <rect x="1310.73474" y="-365.56946" transform="matrix(0.1174 0.99308 -0.99308 0.1174 796.72266 -1624.49438)" class="st19" width="3.10002" height="3.10005" />

    <rect x="1412.72705" y="-407.53574" transform="matrix(0.70711 0.70711 -0.70711 0.70711 127.3069 -1119.01758)" class="st19" width="3.39999" height="3.39996" />

    <rect x="1267.98254" y="-406.56244" transform="matrix(0.70711 0.70711 -0.70711 0.70711 85.60041 -1016.38263)" class="st19" width="3.39999" height="3.39996" />

    <rect x="1212.79395" y="-367.79126" transform="matrix(0.70711 0.70711 -0.70711 0.70711 96.70141 -965.94043)" class="st19" width="3.09995" height="3.09998" />

    <rect x="1630.3916" y="-394.83905" transform="matrix(0.70711 0.70711 -0.70711 0.70711 200.73726 -1269.50073)" class="st19" width="4.8" height="4.79996" />

    <rect x="1657.03967" y="-407.95853" transform="matrix(0.70711 0.70711 -0.70711 0.70711 199.26541 -1292.1864)" class="st19" width="4.8" height="4.79994" />

    <rect x="1614.71985" y="-410.42676" transform="matrix(0.70711 0.70711 -0.70711 0.70711 184.27493 -1262.63257)" class="st19" width="3.09995" height="3.09998" />

    <rect x="1496.74268" y="-402.72458" transform="matrix(0.70711 0.70711 -0.70711 0.70711 155.31648 -1177.01636)" class="st19" width="3.39999" height="3.39996" />

    <rect x="1569.9231" y="-378.42715" transform="matrix(0.70711 0.70711 -0.70711 0.70711 193.93141 -1221.64624)" class="st19" width="3.39999" height="3.39996" />

    <rect x="1733.54041" y="-363.45764" transform="matrix(0.70711 0.70711 -0.70711 0.70711 252.13885 -1332.8324)" class="st19" width="2.80002" height="2.79998" />

    <rect x="1736.0791" y="-309.25854" transform="matrix(0.70711 0.70711 -0.70711 0.70711 292.20697 -1319.16724)" class="st19" width="4.8" height="4.79996" />

    <rect x="1660.05664" y="-330.43234" transform="matrix(0.70711 0.70711 -0.70711 0.70711 254.96838 -1271.61279)" class="st19" width="4.8" height="4.79996" />

    <rect x="1601.26575" y="-317.21252" transform="matrix(0.70711 0.70711 -0.70711 0.70711 247.09674 -1226.16943)" class="st19" width="4.8" height="4.79996" />

    <rect x="1913.94348" y="-344.05899" transform="matrix(0.70711 0.70711 -0.70711 0.70711 319.69464 -1455.12915)" class="st19" width="4.8" height="4.79996" />

    <rect x="1176.49561" y="-313.18835" transform="matrix(0.70711 0.70711 -0.70711 0.70711 125.52994 -924.63287)" class="st19" width="4.79994" height="4.79996" />

    <rect x="1305.93506" y="-298.35526" transform="matrix(0.70711 0.70711 -0.70711 0.70711 173.08049 -1011.46381)" class="st19" width="3.09995" height="3.09998" />

    <rect x="1343.88074" y="-329.53931" transform="matrix(0.1174 0.99308 -0.99308 0.1174 861.7583 -1625.61084)" class="st19" width="3.10002" height="3.10005" />

    <rect x="1423.84277" y="-317.14661" transform="matrix(0.70711 0.70711 -0.70711 0.70711 194.47736 -1100.40308)" class="st19" width="3.39999" height="3.39996" />

    <rect x="1776.37219" y="-299.12277" transform="matrix(0.70711 0.70711 -0.70711 0.70711 311.1756 -1344.68994)" class="st19" width="4.8" height="4.79996" />

    <rect x="1717.08667" y="-363.76825" transform="matrix(0.70711 0.70711 -0.70711 0.70711 247.10005 -1321.28882)" class="st19" width="2.80002" height="2.79998" />

    <rect x="1246.04224" y="-331.76779" transform="matrix(0.70711 0.70711 -0.70711 0.70711 131.91206 -978.89948)" class="st19" width="3.09995" height="3.09998" />

    <rect x="2073.62085" y="-336.38998" transform="matrix(-0.92819 -0.3721 0.3721 -0.92819 4125.92432 126.52948)" class="st19" width="3.1" height="3.10003" />

    <rect x="2050.89648" y="-292.75815" transform="matrix(-0.4985 -0.86689 0.86689 -0.4985 3328.02808 1342.87598)" class="st19" width="3.1" height="3.10003" />

    <rect x="2336.61987" y="-326.88449" transform="matrix(-0.92819 -0.3721 0.3721 -0.92819 4629.50049 242.71922)" class="st19" width="3.1" height="3.10003" />

    <rect x="2426.39697" y="-347.08752" transform="matrix(-0.92819 -0.3721 0.3721 -0.92819 4810.12549 237.16968)" class="st19" width="3.1" height="3.10003" />

    <rect x="2384.22046" y="-313.51022" transform="matrix(-0.92819 -0.3721 0.3721 -0.92819 4716.54053 286.56448)" class="st19" width="3.40005" height="3.40002" />

    <rect x="2141.81177" y="-329.21033" transform="matrix(-0.92819 -0.3721 0.3721 -0.92819 4254.73779 165.74689)" class="st19" width="3.1" height="3.10003" />

    <rect x="2382.927" y="-328.49707" transform="matrix(-0.92819 -0.3721 0.3721 -0.92819 4719.38965 256.84064)" class="st19" width="3.1" height="3.10003" />

    <rect x="2248.92944" y="-345.85449" transform="matrix(0.70711 0.70711 -0.70711 0.70711 416.54016 -1692.52588)" class="st19" width="4.8" height="4.79996" />

    <rect x="2193.28418" y="-318.41074" transform="matrix(0.70711 0.70711 -0.70711 0.70711 419.64764 -1645.1405)" class="st19" width="4.8" height="4.79996" />

    <rect x="2481.62842" y="-322.92004" transform="matrix(0.70711 0.70711 -0.70711 0.70711 500.91321 -1850.35156)" class="st19" width="4.8" height="4.79996" />

    <rect x="2553.94922" y="-330.1113" transform="matrix(0.70711 0.70711 -0.70711 0.70711 517.01044 -1903.59631)" class="st19" width="4.8" height="4.79996" />

    <rect x="2487.84009" y="-355.52661" transform="matrix(0.70711 0.70711 -0.70711 0.70711 479.67618 -1864.29407)" class="st19" width="4.8" height="4.79996" />

    <rect x="2854.39014" y="-289.90506" transform="matrix(0.70711 0.70711 -0.70711 0.70711 633.43768 -2104.26392)" class="st19" width="4.8" height="4.79996" />

    <rect x="2683.53003" y="-315.2193" transform="matrix(0.70711 0.70711 -0.70711 0.70711 564.64404 -1990.50989)" class="st19" width="3.10007" height="3.09998" />

    <rect x="2721.35547" y="-346.41049" transform="matrix(0.1174 0.99308 -0.99308 0.1174 2060.76563 -3008.45093)" class="st19" width="3.10014" height="3.10005" />

    <rect x="2584.88306" y="-290.23581" transform="matrix(0.70711 0.70711 -0.70711 0.70711 554.26703 -1913.79053)" class="st19" width="4.8" height="4.79996" />

    <rect x="2801.40869" y="-333.9397" transform="matrix(0.70711 0.70711 -0.70711 0.70711 586.08258 -2079.40796)" class="st19" width="3.39987" height="3.39996" />

    <rect x="2623.53711" y="-348.59094" transform="matrix(0.70711 0.70711 -0.70711 0.70711 523.47522 -1957.86279)" class="st19" width="3.10007" height="3.09998" />
  </g>
  <path id="moon_1_" class="st21" d="M1938.40002-35c1.5,1.7,2.40002,3.9,2.40002,6.3c0,5.3-4.30005,9.6-9.59998,9.6
	c-1.69995,0-3.30005-0.4-4.59998-1.2c1.80005,2,4.40002,3.3,7.30005,3.3c5.30005,0,9.59998-4.3,9.59998-9.6
	C1943.40002-30.1,1941.40002-33.3,1938.40002-35z" />
  <linearGradient id="comet_1_" gradientUnits="userSpaceOnUse" x1="1817.05005" y1="743.93579" x2="1944.98877" y2="741.9848" gradientTransform="matrix(0.999 0.04384 0.04384 -0.999 -9.65986 355.35742)">
    <stop offset="0" style="stop-color:#F2FAFE" />
    <stop offset="0.2092" style="stop-color:#F3C187" />
    <stop offset="0.4322" style="stop-color:#EB8D80" />
    <stop offset="0.4645" style="stop-color:#C77E75" />
    <stop offset="0.5125" style="stop-color:#996B66" />
    <stop offset="0.5623" style="stop-color:#705A59" />
    <stop offset="0.613" style="stop-color:#504C4E" />
    <stop offset="0.665" style="stop-color:#364146" />
    <stop offset="0.7187" style="stop-color:#243A41" />
    <stop offset="0.7754" style="stop-color:#19353D" />
    <stop offset="0.8399" style="stop-color:#16343C" />
  </linearGradient>
  <path id="comet" class="st22" d="M1846.40002-309.69998c-2.40002-0.10004-4.80005-0.20001-7.19995-0.30002l-1.19995,0.60001
	l1.09998,0.70001c5.40002,0.19998,10.90002,0.39996,16.5,0.59998c46.09998,2,86.90002,5.80002,112.09998,9.80002
	C1944.09998-303,1898.69995-307.39999,1846.40002-309.69998z" />
  <linearGradient id="SVGID_10_" gradientUnits="userSpaceOnUse" x1="1178.23425" y1="530.58972" x2="1666.54114" y2="548.836" gradientTransform="matrix(1 0 0 1 0 -290)">
    <stop offset="0" style="stop-color:#404F58" />
    <stop offset="0.3424" style="stop-color:#41535D" />
    <stop offset="0.8823" style="stop-color:#445E6D" />
    <stop offset="1" style="stop-color:#456171" />
  </linearGradient>
  <polygon class="st23" points="1673.59998,259.70001 1673.30005,259.39999 1667.69995,258.29999 1660.5,253.5 1658.80005,252.70001 
	1667.19995,252 1670.59998,249.70001 1677.90002,250.39999 1698.40002,244.70001 1684.59998,244.79999 1678.30005,244.79999 
	1663.59998,243.10001 1659.09998,243.89999 1654.40002,243.10001 1639.90002,244.39999 1621.30005,239.89999 1602.30005,240.5 
	1595.40002,242.70001 1581.90002,240.89999 1576.59998,238.20001 1563.30005,240 1551.90002,240.20001 1541.09998,237.60001 
	1523.09998,237.60001 1506.30005,237.60001 1497.09998,232.29999 1473.69995,232.29999 1443.40002,232.29999 1432.90002,225.20001 
	1396.09998,232.89999 1367.59998,225.70001 1288.80005,228.39999 1244.40002,213.39999 1212.90002,215.89999 1167.30005,210.89999 
	1165.59998,209.89999 1165.59998,261.5 1287.40002,261.5 1339.90002,267.20001 1373.40002,278.10001 1471.5,271.70001 
	1512,279.79999 1553.30005,278.10001 1589.5,280.5 1577.30005,274.20001 1591.09998,267.89999 1596.59998,269.79999 
	1601.80005,266.89999 1621.5,265.70001 1625.09998,264.89999 1652.59998,264.39999 1670,264.39999 1671.80005,264.39999 
	1673.59998,264 1681.80005,263.29999 1679,261.70001 " />
  <linearGradient id="SVGID_11_" gradientUnits="userSpaceOnUse" x1="1533.19995" y1="315.92514" x2="1445.68445" y2="532.2829" gradientTransform="matrix(1 0 0 1 0 -290)">
    <stop offset="0.1139" style="stop-color:#334D5A" />
    <stop offset="1" style="stop-color:#384A56" />
  </linearGradient>
  <polygon class="st24" points="1703.40002,286.39999 1679.69995,281.70001 1647.19995,279.20001 1625.5,272.20001 
	1608.40002,270.29999 1569.59998,274.39999 1512.19995,259.89999 1457.19995,266.89999 1408.69995,258.20001 1366.59998,260.5 
	1332.40002,256.10001 1321.19995,248.29999 1285.09998,244.70001 1256,244.70001 1250.69995,248.70001 1230.90002,242.29999 
	1213.80005,240.39999 1175,244.5 1165.59998,239.5 1165.59998,309.60001 1177.19995,301.79999 1190.59998,303.79999 
	1195.80005,332.29999 1230.80005,332 1295.59998,330.20001 1374,331.70001 1479.90002,331.20001 1516.90002,331.70001 
	1547.19995,312.60001 1577.19995,314.20001 1609.59998,304.20001 1623.80005,295.89999 1650.80005,291.79999 1689.09998,292.5 
	1708.19995,288.5 " />
  <linearGradient id="SVGID_12_" gradientUnits="userSpaceOnUse" x1="1996.70605" y1="598.44604" x2="1337.5415" y2="634.45068" gradientTransform="matrix(1 0 0 1 0 -290)">
    <stop offset="0.0005" style="stop-color:#303D44" />
    <stop offset="0.5639" style="stop-color:#34424A" />
    <stop offset="0.9715" style="stop-color:#223239" />
  </linearGradient>
  <polygon class="st25" points="1579.09998,348.39999 1547.40002,333.89999 1519.80005,335.79999 1491.30005,319.5 
	1442.80005,308.20001 1398.5,297.60001 1346.69995,298.20001 1272.59998,285.89999 1246,288.39999 1246,288.29999 
	1165.59998,280.39999 1165.59998,416.29999 1237.09998,416.29999 1243.69995,416.29999 1269.40002,416.29999 1285.80005,416.29999 
	1302.90002,416.29999 1338.69995,416.29999 1372.19995,416 1452.30005,399.20001 1488.90002,396.09998 1522,388.09998 
	1547,374.90002 1568.80005,372.20001 1579.90002,373.59998 1606.69995,371.59998 1630.59998,367 " />
  <polygon id="cloud1" class="st26" points="1675.59998,160.29999 1669.90002,156.29999 1165.59998,156.29999 1165.59998,172.10001 
	1498,172.10001 1506.40002,166.20001 1506,164.20001 1669.90002,164.20001 " />
  <polygon id="cloud2" class="st26" points="1591.5,183 1165.59998,183 1165.59998,191.5 1591.5,191.5 1597.59998,187.20001 " />

</svg>

