
<svg xmlns="http://www.w3.org/2000/svg" viewBox="0 0 960 540" width="960" height="540" xmlns="http://www.w3.org/2000/svg" xmlns:xlink="http://www.w3.org/1999/xlink" version="1.1"> 
<g fill="#A7233A">

<circle r="15" cx="153" cy="57"> 
</circle>

<circle r="10" cx="263" cy="87"> 
</circle> 

<circle r="4" cx="204" cy="64">
</circle>

<circle r="4" cx="124" cy="124">
</circle>

<circle r="13" cx="118" cy="200">
</circle>

<circle r="6" cx="306" cy="135"> 
</circle>

<circle r="17" cx="448" cy="45">
</circle>

<circle r="17" cx="256" cy="245"> 
</circle>

<circle r="8" cx="664" cy="180"> 
</circle> 

<circle r="9" cx="341" cy="260"> 
</circle> 

<circle r="18" cx="442" cy="133"> 
</circle> 

<circle r="20" cx="147" cy="259"> 
</circle> 

<circle r="18" cx="383" cy="203"> 
</circle> 
<circle r="14" cx="563" cy="227"> 
</circle>

<circle r="4" cx="770" cy="52"> 
</circle> 

<circle r="11" cx="311" cy="199">
</circle> 
<circle r="8" cx="209" cy="254"> 
</circle>
<circle r="21" cx="54" cy="184"> 
</circle>

<circle r="8" cx="520" cy="162"> 
</circle> 
<circle r="8" cx="520" cy="62"> 
</circle> 


<circle r="26" cx="449" cy="227"> 
</circle> 

<circle r="15" cx="153" cy="57"> 
</circle> 
<circle r="19" cx="572" cy="120"> 
</circle>

<circle r="16" cx="745" cy="112"> 
</circle> 

<circle r="54" cx="200" cy="150">
  
</circle>

<circle r="50" cx="58" cy="73"> 
</circle> 

<circle r="47" cx="668" cy="75"> 
</circle>

<circle r="42" cx="364" cy="80"> 
</circle> 

<circle r="35" cx="63" cy="267">
</circle> 

</g> 
</svg>