<svg xmlns="http://www.w3.org/2000/svg" viewBox="0 0 158.65 26.02"><defs><style>.cls-1,.cls-3{fill:#fff;stroke:#fff;stroke-miterlimit:10;}.cls-1{stroke-width:5px;}.cls-2{fill:#ffd835;}.cls-3{stroke-width:2px;}</style></defs><g id="Layer_2" data-name="Layer 2"><g id="Layer_1-2" data-name="Layer 1"><path class="cls-1" d="M3.34,21.54a2.13,2.13,0,0,1-.77-1c-.17-.4,0-.91.41-1.56l1.07-1.55a1.68,1.68,0,0,1,1.12-.82A2.3,2.3,0,0,1,6.6,17a2.73,2.73,0,0,1,.58.28,6.44,6.44,0,0,0,.75.39,4.85,4.85,0,0,0,.93.34,3.9,3.9,0,0,0,1.1.15,1.89,1.89,0,0,0,1.19-.27.81.81,0,0,0,.31-.64,1.07,1.07,0,0,0-.63-.91,11.77,11.77,0,0,0-1.6-.73c-.64-.25-1.33-.52-2.07-.84a9.47,9.47,0,0,1-2.06-1.2,6.23,6.23,0,0,1-1.6-1.82A5.3,5.3,0,0,1,2.86,9a6.22,6.22,0,0,1,.57-2.68A5.86,5.86,0,0,1,5,4.28,7.46,7.46,0,0,1,7.42,3a9.34,9.34,0,0,1,3-.47,10.89,10.89,0,0,1,1.72.13A11.69,11.69,0,0,1,13.73,3a10.45,10.45,0,0,1,1.34.48,7,7,0,0,1,1,.52,1.86,1.86,0,0,1,.85,1.18,2.19,2.19,0,0,1-.25,1.37l-.82,1.61a2.29,2.29,0,0,1-.55.74,1.21,1.21,0,0,1-.61.26A1.44,1.44,0,0,1,14,9.06a5,5,0,0,1-.69-.28L11.9,8.16a4,4,0,0,0-1.57-.28,2,2,0,0,0-1.19.26.84.84,0,0,0-.34.67,1.09,1.09,0,0,0,.64,1,9.41,9.41,0,0,0,1.6.72c.64.24,1.33.5,2.08.8a9.15,9.15,0,0,1,2.08,1.14,6.09,6.09,0,0,1,1.6,1.78,5.32,5.32,0,0,1,.63,2.72,6.47,6.47,0,0,1-.49,2.52,6,6,0,0,1-1.45,2.09A6.91,6.91,0,0,1,13.16,23a8.76,8.76,0,0,1-3.2.54,11.66,11.66,0,0,1-2.05-.18A16.13,16.13,0,0,1,6,22.87a10.46,10.46,0,0,1-1.57-.64A6.44,6.44,0,0,1,3.34,21.54Z"/><path class="cls-1" d="M24,7.93H20a1.62,1.62,0,0,1-1.84-1.84V4.68A1.62,1.62,0,0,1,20,2.84H33.9a1.62,1.62,0,0,1,1.84,1.84V6.09A1.62,1.62,0,0,1,33.9,7.93h-4V21.34a1.62,1.62,0,0,1-1.84,1.84H25.81A1.62,1.62,0,0,1,24,21.34Z"/><path class="cls-1" d="M39.87,4.34A2,2,0,0,1,42,2.84h3.09a2,2,0,0,1,2.09,1.5l5.52,16.72a1.6,1.6,0,0,1-.09,1.54,1.61,1.61,0,0,1-1.41.58H48.87a2,2,0,0,1-2.1-1.55l-.42-2H40.6l-.42,2a1.92,1.92,0,0,1-2,1.55H35.85a1.61,1.61,0,0,1-1.41-.58,1.6,1.6,0,0,1-.09-1.54ZM45,14.92l-.62-2.83c-.1-.34-.19-.73-.29-1.17s-.18-.86-.28-1.23-.19-.91-.28-1.36h-.06c-.09.45-.19.9-.28,1.36s-.18.78-.27,1.23a11.42,11.42,0,0,1-.27,1.17L42,14.92Z"/><path class="cls-1" d="M54.55,4.68a1.64,1.64,0,0,1,1.87-1.84h5.52a23.07,23.07,0,0,1,2.39.1A7.42,7.42,0,0,1,66,3.26a5.55,5.55,0,0,1,1.59.85,5.88,5.88,0,0,1,1.27,1.36,6.49,6.49,0,0,1,.84,1.78A7.67,7.67,0,0,1,70,9.38,7.4,7.4,0,0,1,69.8,11a7.29,7.29,0,0,1-.51,1.58A6.3,6.3,0,0,1,68.42,14a5.21,5.21,0,0,1-1.28,1.1v.06a4,4,0,0,1,.29.37c.09.11.19.24.29.39a4.26,4.26,0,0,1,.33.54L70.59,21c.4.71.46,1.26.17,1.65a1.65,1.65,0,0,1-1.44.58H66.69a2.7,2.7,0,0,1-1.22-.28,2.39,2.39,0,0,1-1-1l-2.57-5H60.52v4.44a1.62,1.62,0,0,1-1.84,1.84H56.42a1.64,1.64,0,0,1-1.87-1.84Zm7.25,7.13a2.23,2.23,0,0,0,1.59-.5,2.19,2.19,0,0,0,.53-1.65,2.67,2.67,0,0,0-.14-.82A1.21,1.21,0,0,0,63,8.16,2.39,2.39,0,0,0,62.29,8c-.25,0-.54,0-.86,0h-.91v3.88Z"/><path class="cls-1" d="M76.73,7.93h-4a1.63,1.63,0,0,1-1.84-1.84V4.68a1.63,1.63,0,0,1,1.84-1.84H86.66A1.62,1.62,0,0,1,88.5,4.68V6.09a1.62,1.62,0,0,1-1.84,1.84h-4V21.34a1.62,1.62,0,0,1-1.84,1.84H78.57a1.63,1.63,0,0,1-1.84-1.84Z"/><path class="cls-1" d="M90.2,4.68a1.64,1.64,0,0,1,1.87-1.84h7a6.76,6.76,0,0,1,2.78.55A6.39,6.39,0,0,1,104,4.9a6.68,6.68,0,0,1,1.37,2.31,8.57,8.57,0,0,1,.48,2.9,8.66,8.66,0,0,1-.48,2.93A6.87,6.87,0,0,1,104,15.37a6.23,6.23,0,0,1-2.13,1.55,6.93,6.93,0,0,1-2.78.55H96.17v3.87a1.62,1.62,0,0,1-1.84,1.84H92.07a1.64,1.64,0,0,1-1.87-1.84Zm7.64,7.69a1.72,1.72,0,0,0,1.53-.66,2.79,2.79,0,0,0,.45-1.6,2.68,2.68,0,0,0-.44-1.56A1.64,1.64,0,0,0,98,7.93H96.17v4.44Z"/><path class="cls-1" d="M111.05,4.34a2,2,0,0,1,2.1-1.5h3.08a2,2,0,0,1,2.09,1.5l5.52,16.72a1.6,1.6,0,0,1-.08,1.54,1.65,1.65,0,0,1-1.42.58h-2.29A2,2,0,0,1,118,21.63l-.43-2h-5.74l-.43,2a1.92,1.92,0,0,1-2,1.55H107a1.43,1.43,0,0,1-1.49-2.12Zm5.12,10.58-.62-2.83c-.09-.34-.19-.73-.28-1.17s-.19-.86-.28-1.23-.19-.91-.29-1.36h0c-.1.45-.19.9-.29,1.36s-.18.78-.27,1.23a11.42,11.42,0,0,1-.27,1.17l-.67,2.83Z"/><path class="cls-1" d="M125.71,21.54a2.22,2.22,0,0,1-.78-1,1.75,1.75,0,0,1,.41-1.56l1.08-1.55a1.66,1.66,0,0,1,1.11-.82A2.28,2.28,0,0,1,129,17a2.73,2.73,0,0,1,.58.28q.33.19.75.39a5,5,0,0,0,.94.34,3.85,3.85,0,0,0,1.1.15,1.91,1.91,0,0,0,1.19-.27.84.84,0,0,0,.31-.64,1.06,1.06,0,0,0-.64-.91,11.22,11.22,0,0,0-1.6-.73c-.64-.25-1.33-.52-2.06-.84a9.31,9.31,0,0,1-2.07-1.2,6.38,6.38,0,0,1-1.6-1.82A5.41,5.41,0,0,1,125.23,9a6.37,6.37,0,0,1,.56-2.68,6,6,0,0,1,1.59-2A7.51,7.51,0,0,1,129.78,3a9.43,9.43,0,0,1,3-.47,11,11,0,0,1,1.73.13,11.87,11.87,0,0,1,1.58.34,10.61,10.61,0,0,1,1.35.48,7.56,7.56,0,0,1,1,.52,1.94,1.94,0,0,1,.85,1.18A2.2,2.2,0,0,1,139,6.52l-.82,1.61a2.16,2.16,0,0,1-.55.74,1.21,1.21,0,0,1-.61.26,1.4,1.4,0,0,1-.66-.07,4.15,4.15,0,0,1-.69-.28l-1.43-.62a4,4,0,0,0-1.57-.28,2,2,0,0,0-1.19.26.81.81,0,0,0-.34.67,1.07,1.07,0,0,0,.64,1,9.28,9.28,0,0,0,1.59.72c.64.24,1.34.5,2.08.8a8.94,8.94,0,0,1,2.08,1.14,6,6,0,0,1,1.6,1.78,5.22,5.22,0,0,1,.64,2.72,6.48,6.48,0,0,1-.5,2.52,6.12,6.12,0,0,1-1.44,2.09A6.91,6.91,0,0,1,135.53,23a8.8,8.8,0,0,1-3.2.54,11.58,11.58,0,0,1-2.05-.18,15.64,15.64,0,0,1-1.88-.47,10,10,0,0,1-1.57-.64A5.76,5.76,0,0,1,125.71,21.54Z"/><path class="cls-1" d="M142.06,21.54a2.22,2.22,0,0,1-.78-1,1.75,1.75,0,0,1,.41-1.56l1.08-1.55a1.68,1.68,0,0,1,1.12-.82,2.26,2.26,0,0,1,1.42.37,2.52,2.52,0,0,1,.58.28q.33.19.75.39a5.21,5.21,0,0,0,.94.34,3.85,3.85,0,0,0,1.1.15,1.89,1.89,0,0,0,1.19-.27.81.81,0,0,0,.31-.64,1.06,1.06,0,0,0-.64-.91A11.05,11.05,0,0,0,148,15.6c-.65-.25-1.33-.52-2.07-.84a9.24,9.24,0,0,1-2.06-1.2,6.09,6.09,0,0,1-1.6-1.82A5.3,5.3,0,0,1,141.58,9a6.22,6.22,0,0,1,.57-2.68,5.86,5.86,0,0,1,1.58-2A7.51,7.51,0,0,1,146.13,3a9.43,9.43,0,0,1,3-.47,11,11,0,0,1,1.73.13,11.54,11.54,0,0,1,1.58.34,10.61,10.61,0,0,1,1.35.48,7.56,7.56,0,0,1,1,.52,1.9,1.9,0,0,1,.85,1.18,2.19,2.19,0,0,1-.25,1.37l-.82,1.61a2.17,2.17,0,0,1-.56.74,1.18,1.18,0,0,1-.6.26,1.44,1.44,0,0,1-.67-.07,4.53,4.53,0,0,1-.69-.28l-1.43-.62a4,4,0,0,0-1.57-.28,2,2,0,0,0-1.19.26.81.81,0,0,0-.34.67,1.07,1.07,0,0,0,.64,1,9.07,9.07,0,0,0,1.6.72c.64.24,1.33.5,2.08.8a9.36,9.36,0,0,1,2.08,1.14,5.92,5.92,0,0,1,1.59,1.78,5.22,5.22,0,0,1,.64,2.72,6.3,6.3,0,0,1-.5,2.52,6.12,6.12,0,0,1-1.44,2.09A6.91,6.91,0,0,1,151.88,23a8.8,8.8,0,0,1-3.2.54,11.58,11.58,0,0,1-2.05-.18,15.64,15.64,0,0,1-1.88-.47,10,10,0,0,1-1.57-.64A6.08,6.08,0,0,1,142.06,21.54Z"/><path class="cls-2" d="M3.34,21.54a2.13,2.13,0,0,1-.77-1c-.17-.4,0-.91.41-1.56l1.07-1.55a1.68,1.68,0,0,1,1.12-.82A2.3,2.3,0,0,1,6.6,17a2.73,2.73,0,0,1,.58.28,6.44,6.44,0,0,0,.75.39,4.85,4.85,0,0,0,.93.34,3.9,3.9,0,0,0,1.1.15,1.89,1.89,0,0,0,1.19-.27.81.81,0,0,0,.31-.64,1.07,1.07,0,0,0-.63-.91,11.77,11.77,0,0,0-1.6-.73c-.64-.25-1.33-.52-2.07-.84a9.47,9.47,0,0,1-2.06-1.2,6.23,6.23,0,0,1-1.6-1.82A5.3,5.3,0,0,1,2.86,9a6.22,6.22,0,0,1,.57-2.68A5.86,5.86,0,0,1,5,4.28,7.46,7.46,0,0,1,7.42,3a9.34,9.34,0,0,1,3-.47,10.89,10.89,0,0,1,1.72.13A11.69,11.69,0,0,1,13.73,3a10.45,10.45,0,0,1,1.34.48,7,7,0,0,1,1,.52,1.86,1.86,0,0,1,.85,1.18,2.19,2.19,0,0,1-.25,1.37l-.82,1.61a2.29,2.29,0,0,1-.55.74,1.21,1.21,0,0,1-.61.26A1.44,1.44,0,0,1,14,9.06a5,5,0,0,1-.69-.28L11.9,8.16a4,4,0,0,0-1.57-.28,2,2,0,0,0-1.19.26.84.84,0,0,0-.34.67,1.09,1.09,0,0,0,.64,1,9.41,9.41,0,0,0,1.6.72c.64.24,1.33.5,2.08.8a9.15,9.15,0,0,1,2.08,1.14,6.09,6.09,0,0,1,1.6,1.78,5.32,5.32,0,0,1,.63,2.72,6.47,6.47,0,0,1-.49,2.52,6,6,0,0,1-1.45,2.09A6.91,6.91,0,0,1,13.16,23a8.76,8.76,0,0,1-3.2.54,11.66,11.66,0,0,1-2.05-.18A16.13,16.13,0,0,1,6,22.87a10.46,10.46,0,0,1-1.57-.64A6.44,6.44,0,0,1,3.34,21.54Z"/><path class="cls-2" d="M24,7.93H20a1.62,1.62,0,0,1-1.84-1.84V4.68A1.62,1.62,0,0,1,20,2.84H33.9a1.62,1.62,0,0,1,1.84,1.84V6.09A1.62,1.62,0,0,1,33.9,7.93h-4V21.34a1.62,1.62,0,0,1-1.84,1.84H25.81A1.62,1.62,0,0,1,24,21.34Z"/><path class="cls-2" d="M39.87,4.34A2,2,0,0,1,42,2.84h3.09a2,2,0,0,1,2.09,1.5l5.52,16.72a1.6,1.6,0,0,1-.09,1.54,1.61,1.61,0,0,1-1.41.58H48.87a2,2,0,0,1-2.1-1.55l-.42-2H40.6l-.42,2a1.92,1.92,0,0,1-2,1.55H35.85a1.61,1.61,0,0,1-1.41-.58,1.6,1.6,0,0,1-.09-1.54ZM45,14.92l-.62-2.83c-.1-.34-.19-.73-.29-1.17s-.18-.86-.28-1.23-.19-.91-.28-1.36h-.06c-.09.45-.19.9-.28,1.36s-.18.78-.27,1.23a11.42,11.42,0,0,1-.27,1.17L42,14.92Z"/><path class="cls-2" d="M54.55,4.68a1.64,1.64,0,0,1,1.87-1.84h5.52a23.07,23.07,0,0,1,2.39.1A7.42,7.42,0,0,1,66,3.26a5.55,5.55,0,0,1,1.59.85,5.88,5.88,0,0,1,1.27,1.36,6.49,6.49,0,0,1,.84,1.78A7.67,7.67,0,0,1,70,9.38,7.4,7.4,0,0,1,69.8,11a7.29,7.29,0,0,1-.51,1.58A6.3,6.3,0,0,1,68.42,14a5.21,5.21,0,0,1-1.28,1.1v.06a4,4,0,0,1,.29.37c.09.11.19.24.29.39a4.26,4.26,0,0,1,.33.54L70.59,21c.4.71.46,1.26.17,1.65a1.65,1.65,0,0,1-1.44.58H66.69a2.7,2.7,0,0,1-1.22-.28,2.39,2.39,0,0,1-1-1l-2.57-5H60.52v4.44a1.62,1.62,0,0,1-1.84,1.84H56.42a1.64,1.64,0,0,1-1.87-1.84Zm7.25,7.13a2.23,2.23,0,0,0,1.59-.5,2.19,2.19,0,0,0,.53-1.65,2.67,2.67,0,0,0-.14-.82A1.21,1.21,0,0,0,63,8.16,2.39,2.39,0,0,0,62.29,8c-.25,0-.54,0-.86,0h-.91v3.88Z"/><path class="cls-2" d="M76.73,7.93h-4a1.63,1.63,0,0,1-1.84-1.84V4.68a1.63,1.63,0,0,1,1.84-1.84H86.66A1.62,1.62,0,0,1,88.5,4.68V6.09a1.62,1.62,0,0,1-1.84,1.84h-4V21.34a1.62,1.62,0,0,1-1.84,1.84H78.57a1.63,1.63,0,0,1-1.84-1.84Z"/><path class="cls-2" d="M90.2,4.68a1.64,1.64,0,0,1,1.87-1.84h7a6.76,6.76,0,0,1,2.78.55A6.39,6.39,0,0,1,104,4.9a6.68,6.68,0,0,1,1.37,2.31,8.57,8.57,0,0,1,.48,2.9,8.66,8.66,0,0,1-.48,2.93A6.87,6.87,0,0,1,104,15.37a6.23,6.23,0,0,1-2.13,1.55,6.93,6.93,0,0,1-2.78.55H96.17v3.87a1.62,1.62,0,0,1-1.84,1.84H92.07a1.64,1.64,0,0,1-1.87-1.84Zm7.64,7.69a1.72,1.72,0,0,0,1.53-.66,2.79,2.79,0,0,0,.45-1.6,2.68,2.68,0,0,0-.44-1.56A1.64,1.64,0,0,0,98,7.93H96.17v4.44Z"/><path class="cls-2" d="M111.05,4.34a2,2,0,0,1,2.1-1.5h3.08a2,2,0,0,1,2.09,1.5l5.52,16.72a1.6,1.6,0,0,1-.08,1.54,1.65,1.65,0,0,1-1.42.58h-2.29A2,2,0,0,1,118,21.63l-.43-2h-5.74l-.43,2a1.92,1.92,0,0,1-2,1.55H107a1.43,1.43,0,0,1-1.49-2.12Zm5.12,10.58-.62-2.83c-.09-.34-.19-.73-.28-1.17s-.19-.86-.28-1.23-.19-.91-.29-1.36h0c-.1.45-.19.9-.29,1.36s-.18.78-.27,1.23a11.42,11.42,0,0,1-.27,1.17l-.67,2.83Z"/><path class="cls-2" d="M125.71,21.54a2.22,2.22,0,0,1-.78-1,1.75,1.75,0,0,1,.41-1.56l1.08-1.55a1.66,1.66,0,0,1,1.11-.82A2.28,2.28,0,0,1,129,17a2.73,2.73,0,0,1,.58.28q.33.19.75.39a5,5,0,0,0,.94.34,3.85,3.85,0,0,0,1.1.15,1.91,1.91,0,0,0,1.19-.27.84.84,0,0,0,.31-.64,1.06,1.06,0,0,0-.64-.91,11.22,11.22,0,0,0-1.6-.73c-.64-.25-1.33-.52-2.06-.84a9.31,9.31,0,0,1-2.07-1.2,6.38,6.38,0,0,1-1.6-1.82A5.41,5.41,0,0,1,125.23,9a6.37,6.37,0,0,1,.56-2.68,6,6,0,0,1,1.59-2A7.51,7.51,0,0,1,129.78,3a9.43,9.43,0,0,1,3-.47,11,11,0,0,1,1.73.13,11.87,11.87,0,0,1,1.58.34,10.61,10.61,0,0,1,1.35.48,7.56,7.56,0,0,1,1,.52,1.94,1.94,0,0,1,.85,1.18A2.2,2.2,0,0,1,139,6.52l-.82,1.61a2.16,2.16,0,0,1-.55.74,1.21,1.21,0,0,1-.61.26,1.4,1.4,0,0,1-.66-.07,4.15,4.15,0,0,1-.69-.28l-1.43-.62a4,4,0,0,0-1.57-.28,2,2,0,0,0-1.19.26.81.81,0,0,0-.34.67,1.07,1.07,0,0,0,.64,1,9.28,9.28,0,0,0,1.59.72c.64.24,1.34.5,2.08.8a8.94,8.94,0,0,1,2.08,1.14,6,6,0,0,1,1.6,1.78,5.22,5.22,0,0,1,.64,2.72,6.48,6.48,0,0,1-.5,2.52,6.12,6.12,0,0,1-1.44,2.09A6.91,6.91,0,0,1,135.53,23a8.8,8.8,0,0,1-3.2.54,11.58,11.58,0,0,1-2.05-.18,15.64,15.64,0,0,1-1.88-.47,10,10,0,0,1-1.57-.64A5.76,5.76,0,0,1,125.71,21.54Z"/><path class="cls-2" d="M142.06,21.54a2.22,2.22,0,0,1-.78-1,1.75,1.75,0,0,1,.41-1.56l1.08-1.55a1.68,1.68,0,0,1,1.12-.82,2.26,2.26,0,0,1,1.42.37,2.52,2.52,0,0,1,.58.28q.33.19.75.39a5.21,5.21,0,0,0,.94.34,3.85,3.85,0,0,0,1.1.15,1.89,1.89,0,0,0,1.19-.27.81.81,0,0,0,.31-.64,1.06,1.06,0,0,0-.64-.91A11.05,11.05,0,0,0,148,15.6c-.65-.25-1.33-.52-2.07-.84a9.24,9.24,0,0,1-2.06-1.2,6.09,6.09,0,0,1-1.6-1.82A5.3,5.3,0,0,1,141.58,9a6.22,6.22,0,0,1,.57-2.68,5.86,5.86,0,0,1,1.58-2A7.51,7.51,0,0,1,146.13,3a9.43,9.43,0,0,1,3-.47,11,11,0,0,1,1.73.13,11.54,11.54,0,0,1,1.58.34,10.61,10.61,0,0,1,1.35.48,7.56,7.56,0,0,1,1,.52,1.9,1.9,0,0,1,.85,1.18,2.19,2.19,0,0,1-.25,1.37l-.82,1.61a2.17,2.17,0,0,1-.56.74,1.18,1.18,0,0,1-.6.26,1.44,1.44,0,0,1-.67-.07,4.53,4.53,0,0,1-.69-.28l-1.43-.62a4,4,0,0,0-1.57-.28,2,2,0,0,0-1.19.26.81.81,0,0,0-.34.67,1.07,1.07,0,0,0,.64,1,9.07,9.07,0,0,0,1.6.72c.64.24,1.33.5,2.08.8a9.36,9.36,0,0,1,2.08,1.14,5.92,5.92,0,0,1,1.59,1.78,5.22,5.22,0,0,1,.64,2.72,6.3,6.3,0,0,1-.5,2.52,6.12,6.12,0,0,1-1.44,2.09A6.91,6.91,0,0,1,151.88,23a8.8,8.8,0,0,1-3.2.54,11.58,11.58,0,0,1-2.05-.18,15.64,15.64,0,0,1-1.88-.47,10,10,0,0,1-1.57-.64A6.08,6.08,0,0,1,142.06,21.54Z"/><polygon class="cls-3" points="123.99 13.38 124.55 15.7 125.99 14.92 123.99 13.38"/></g></g></svg>