<svg width="97" height="19" viewBox="0 0 97 19" fill="none" xmlns="http://www.w3.org/2000/svg">
<path d="M3.32166 13.587C3.09766 13.619 2.92966 13.635 2.81766 13.635C2.22566 13.635 1.73766 13.451 1.35366 13.083C0.969664 12.715 0.777664 12.203 0.777664 11.547C0.713664 10.843 0.865664 9.97095 1.23366 8.93095C1.61766 7.89095 2.09766 7.01895 2.67366 6.31495C3.07366 5.85095 3.41766 5.47495 3.70566 5.18695C3.99366 4.89895 4.25766 4.70695 4.49766 4.61095C4.83366 4.46695 5.20966 4.39495 5.62566 4.39495C5.91366 4.45895 6.19366 4.57895 6.46566 4.75495C6.75366 4.93095 6.89766 5.10695 6.89766 5.28295L7.01766 5.40295C7.11366 5.40295 7.20166 5.52295 7.28166 5.76295C7.36166 5.98695 7.40166 6.23495 7.40166 6.50695C7.40166 6.73095 7.36166 6.92295 7.28166 7.08295C7.21766 7.38695 7.10566 7.65095 6.94566 7.87495C6.80166 8.09895 6.65766 8.21095 6.51366 8.21095C6.33766 8.21095 6.24966 8.25895 6.24966 8.35495C6.24966 8.41895 6.21766 8.45095 6.15366 8.45095C6.07366 8.45095 5.97766 8.40295 5.86566 8.30695C5.75366 8.21095 5.67366 8.09895 5.62566 7.97095C5.62566 7.92295 5.65766 7.78695 5.72166 7.56295C5.78566 7.33895 5.84966 7.09095 5.91366 6.81895C5.96166 6.62695 5.98566 6.45895 5.98566 6.31495C5.98566 5.99495 5.86566 5.83495 5.62566 5.83495C5.49766 5.83495 5.36966 5.86695 5.24166 5.93095C4.60166 6.28295 4.03366 6.84295 3.53766 7.61095C3.04166 8.37895 2.62566 9.43495 2.28966 10.779C2.20966 11.131 2.16966 11.411 2.16966 11.619C2.16966 11.779 2.17766 11.907 2.19366 12.003C2.22566 12.099 2.25766 12.155 2.28966 12.171C2.36966 12.203 2.53766 12.219 2.79366 12.219C3.38566 12.219 3.80166 12.147 4.04166 12.003C4.55366 11.731 5.12166 11.363 5.74566 10.899C5.80966 10.851 5.90566 10.771 6.03366 10.659C6.16166 10.531 6.28166 10.443 6.39366 10.395C6.50566 10.219 6.60966 10.115 6.70566 10.083C6.80166 10.035 6.95366 10.011 7.16166 10.011C7.36966 10.075 7.53766 10.163 7.66566 10.275C7.79366 10.371 7.79366 10.451 7.66566 10.515C7.61766 10.515 7.58566 10.531 7.56966 10.563C7.55366 10.595 7.54566 10.619 7.54566 10.635C7.57766 10.715 7.44966 10.915 7.16166 11.235C6.87366 11.555 6.55366 11.859 6.20166 12.147C5.84966 12.419 5.60966 12.555 5.48166 12.555C5.41766 12.555 5.36166 12.563 5.31366 12.579C5.26566 12.595 5.24166 12.635 5.24166 12.699C5.24166 12.763 4.99366 12.915 4.49766 13.155C4.01766 13.379 3.62566 13.523 3.32166 13.587ZM10.8929 13.491C10.7009 13.491 10.5489 13.459 10.4369 13.395C10.3249 13.331 10.1649 13.211 9.95691 13.035C9.42891 12.475 9.16491 11.963 9.16491 11.499C9.16491 11.387 9.17291 11.307 9.18891 11.259C9.23691 11.147 9.25291 11.035 9.23691 10.923C9.23691 10.811 9.23691 10.739 9.23691 10.707C9.17291 10.643 9.14091 10.603 9.14091 10.587C9.14091 10.555 9.15691 10.531 9.18891 10.515C9.22091 10.483 9.24491 10.451 9.26091 10.419C9.35691 10.419 9.38891 10.331 9.35691 10.155C9.32491 10.027 9.38891 9.74695 9.54891 9.31495C9.70891 8.86695 9.90891 8.45895 10.1489 8.09095C10.3249 7.80295 10.5809 7.44295 10.9169 7.01095C11.2689 6.57895 11.5809 6.25095 11.8529 6.02695C12.2369 5.69095 12.5809 5.44295 12.8849 5.28295C13.1889 5.12295 13.5249 5.00295 13.8929 4.92295C14.2129 4.84295 14.4289 4.80295 14.5409 4.80295C14.6529 4.80295 14.7489 4.83495 14.8289 4.89895C14.9249 4.94695 15.0449 5.04295 15.1889 5.18695C15.6209 5.37895 15.9169 5.62695 16.0769 5.93095C16.2529 6.21895 16.3409 6.67495 16.3409 7.29895C16.3409 8.33895 15.9169 9.46695 15.0689 10.683C14.7009 11.211 14.3569 11.619 14.0369 11.907C13.7169 12.179 13.2929 12.475 12.7649 12.795C12.4289 13.035 12.1169 13.211 11.8289 13.323C11.5569 13.419 11.2449 13.475 10.8929 13.491ZM13.1969 10.947C13.5809 10.515 13.8849 10.107 14.1089 9.72295C14.3489 9.33895 14.5729 8.85095 14.7809 8.25895C14.8609 7.98695 14.9009 7.65895 14.9009 7.27495C14.9009 6.79495 14.8369 6.52295 14.7089 6.45895C14.5489 6.37895 14.3889 6.33895 14.2289 6.33895C13.8769 6.33895 13.5089 6.49895 13.1249 6.81895C12.6609 7.21895 12.2449 7.71495 11.8769 8.30695C11.5089 8.88295 11.1329 9.60295 10.7489 10.467C10.5889 10.803 10.5089 11.131 10.5089 11.451C10.5089 11.691 10.5649 11.883 10.6769 12.027C10.8049 12.171 10.9729 12.243 11.1809 12.243C11.7089 12.243 12.3809 11.811 13.1969 10.947ZM18.3699 12.963C18.2419 12.803 18.1779 12.643 18.1779 12.483C18.1779 12.355 18.1379 12.291 18.0579 12.291C17.9619 12.195 18.1459 11.651 18.6099 10.659C19.0739 9.65095 19.4739 8.88295 19.8099 8.35495C19.8739 8.30695 19.9219 8.24295 19.9539 8.16295C19.9859 8.06695 19.9859 8.01895 19.9539 8.01895C19.9859 7.97095 20.0339 7.89095 20.0979 7.77895C20.1619 7.66695 20.2259 7.57095 20.2899 7.49095C20.5619 6.96295 20.6739 6.53895 20.6259 6.21895C20.5619 6.15495 20.4899 6.13095 20.4099 6.14695C20.3459 6.16295 20.3059 6.17895 20.2899 6.19495C20.2579 6.21095 20.1699 6.24295 20.0259 6.29095C19.8979 6.32295 19.7859 6.37095 19.6899 6.43495C19.3219 6.67495 19.0899 6.79495 18.9939 6.79495C18.8979 6.79495 18.8099 6.74695 18.7299 6.65095C18.6659 6.55495 18.5939 6.39495 18.5139 6.17095C18.4659 6.02695 18.4419 5.92295 18.4419 5.85895C18.4419 5.74695 18.5059 5.63495 18.6339 5.52295C18.7299 5.42695 18.8419 5.35495 18.9699 5.30695C19.1139 5.24295 19.2099 5.19495 19.2579 5.16295C19.5939 4.97095 19.8339 4.85895 19.9779 4.82695C20.2659 4.74695 20.4979 4.70695 20.6739 4.70695C21.1539 4.70695 21.4899 4.93095 21.6819 5.37895C21.9059 5.65095 22.0179 5.96295 22.0179 6.31495C22.0179 6.61895 21.9059 7.01095 21.6819 7.49095L21.4419 7.85095C21.3939 7.94695 21.3699 8.01095 21.3699 8.04295C21.3699 8.07495 21.3779 8.09095 21.3939 8.09095C21.4579 8.09095 21.5299 8.03495 21.6099 7.92295C21.6899 7.84295 21.7939 7.74695 21.9219 7.63495C22.0499 7.50695 22.1379 7.44295 22.1859 7.44295C22.2019 7.44295 22.2259 7.43495 22.2579 7.41895C22.2899 7.38695 22.3059 7.32295 22.3059 7.22695L22.5459 7.01095C22.6099 7.01095 22.8019 6.87495 23.1219 6.60295L23.5779 6.24295C23.7539 6.11495 23.9139 6.05095 24.0579 6.05095C24.1059 6.03495 24.1779 6.02695 24.2739 6.02695C24.5779 6.02695 24.8259 6.19495 25.0179 6.53095C25.2099 6.85095 25.3059 7.26695 25.3059 7.77895L24.8019 9.07495L25.6659 8.01895C25.8099 7.84295 26.0019 7.65095 26.2419 7.44295C26.2739 7.34695 26.3139 7.29095 26.3619 7.27495C26.4259 7.24295 26.4659 7.22695 26.4819 7.22695C26.4979 7.22695 26.5139 7.21895 26.5299 7.20295C26.5619 7.18695 26.5779 7.16295 26.5779 7.13095C26.6419 7.08295 26.7219 7.02695 26.8179 6.96295C26.9299 6.88295 27.0019 6.81895 27.0339 6.77095C27.1779 6.70695 27.3379 6.67495 27.5139 6.67495C27.8499 6.67495 28.1299 6.89095 28.3539 7.32295C28.4499 7.49895 28.5059 7.65895 28.5219 7.80295C28.5539 7.93095 28.5699 8.15495 28.5699 8.47495C28.5059 8.82695 28.4499 9.19495 28.4019 9.57895C28.4019 9.64295 28.3859 9.80295 28.3539 10.059C28.2739 10.235 28.2339 10.507 28.2339 10.875C28.2339 11.099 28.2419 11.243 28.2579 11.307C28.2899 11.371 28.3539 11.403 28.4499 11.403C28.6899 11.355 29.0019 11.243 29.3859 11.067C29.7859 10.875 30.0739 10.691 30.2499 10.515C30.4899 10.275 30.7059 10.155 30.8979 10.155C31.0739 10.155 31.1859 10.251 31.2339 10.443C31.2819 10.539 31.1539 10.795 30.8499 11.211C30.5619 11.627 30.3619 11.835 30.2499 11.835C30.2179 11.835 30.1539 11.883 30.0579 11.979C29.9779 12.075 29.9139 12.139 29.8659 12.171C29.5939 12.475 29.3699 12.627 29.1939 12.627C29.1299 12.627 29.0419 12.651 28.9299 12.699C28.8339 12.731 28.7459 12.747 28.6659 12.747C28.6339 12.763 28.5539 12.771 28.4259 12.771C28.1859 12.771 27.9539 12.707 27.7299 12.579C27.5059 12.451 27.3619 12.259 27.2979 12.003C27.1699 11.683 27.1059 11.235 27.1059 10.659C27.1059 10.515 27.1219 10.283 27.1539 9.96295L27.2739 9.21895C27.3059 8.91495 27.3379 8.73095 27.3699 8.66695V8.45095C27.3699 8.17895 27.3459 8.04295 27.2979 8.04295C27.1699 8.04295 26.7459 8.45895 26.0259 9.29095C25.3059 10.107 24.7539 10.811 24.3699 11.403C24.2579 11.547 24.1299 11.763 23.9859 12.051C23.8579 12.323 23.7779 12.467 23.7459 12.483C23.6819 12.547 23.6099 12.579 23.5299 12.579C23.4339 12.579 23.3299 12.531 23.2179 12.435C23.1059 12.339 23.0099 12.219 22.9299 12.075C22.8659 11.915 22.8339 11.795 22.8339 11.715C22.8339 11.603 22.8819 11.387 22.9779 11.067C23.0739 10.731 23.2099 10.291 23.3859 9.74695C23.5619 9.21895 23.7059 8.76295 23.8179 8.37895C23.9459 7.99495 24.0259 7.73895 24.0579 7.61095C24.0579 7.49895 23.6579 7.78695 22.8579 8.47495C22.6979 8.66695 22.5139 8.86695 22.3059 9.07495C21.9379 9.45895 21.5219 9.90695 21.0579 10.419C20.6099 10.931 20.2179 11.419 19.8819 11.883C19.5299 12.363 19.2659 12.699 19.0899 12.891C18.9299 13.083 18.7939 13.179 18.6819 13.179C18.6019 13.179 18.4979 13.107 18.3699 12.963ZM36.3532 3.53095C36.3052 3.57895 36.2572 3.60295 36.2092 3.60295C36.1452 3.60295 36.0412 3.55495 35.8972 3.45895C35.7372 3.44295 35.5212 3.30695 35.2492 3.05095C34.9932 2.77895 34.8652 2.60295 34.8652 2.52295C34.8332 2.20295 34.8812 1.85895 35.0092 1.49095C35.1372 1.12295 35.3692 0.930951 35.7052 0.914951C35.7532 0.914951 35.8172 0.930952 35.8972 0.962952C35.9772 0.978952 36.1132 1.02695 36.3052 1.10695C36.3372 1.17095 36.4012 1.30695 36.4972 1.51495C36.6092 1.72295 36.6892 1.92295 36.7372 2.11495C36.8012 2.30695 36.8332 2.48295 36.8332 2.64295C36.8332 3.02695 36.6732 3.32295 36.3532 3.53095ZM33.6412 13.107C33.4012 13.107 33.1852 12.955 32.9932 12.651C32.8172 12.347 32.7132 12.043 32.6812 11.739C32.7452 11.131 32.7932 10.699 32.8252 10.443C32.9532 9.85095 33.1532 9.04295 33.4252 8.01895C33.7132 6.97895 33.8892 6.39495 33.9532 6.26695C34.0012 6.18695 34.0732 6.14695 34.1692 6.14695C34.2652 6.14695 34.3692 6.17895 34.4812 6.24295C34.5932 6.30695 34.6892 6.37895 34.7692 6.45895C34.8972 6.63495 34.9612 6.83495 34.9612 7.05895C34.9612 7.39495 34.8012 8.09895 34.4812 9.17095C34.2572 9.97095 34.1132 10.539 34.0492 10.875C33.9852 11.211 33.9612 11.571 33.9772 11.955C33.9612 12.067 33.9292 12.259 33.8812 12.531C33.8492 12.787 33.8172 12.947 33.7852 13.011C33.7532 13.075 33.7052 13.107 33.6412 13.107ZM38.0217 12.795C37.9737 12.795 37.8857 12.755 37.7577 12.675C37.6457 12.595 37.5497 12.515 37.4697 12.435C37.3577 12.323 37.2857 12.203 37.2537 12.075C37.2377 11.947 37.2297 11.651 37.2297 11.187C37.2297 10.691 37.3257 10.147 37.5177 9.55495C37.7257 8.96295 38.0857 8.10695 38.5977 6.98695L39.3897 5.30695C39.4377 5.19495 39.5497 5.03495 39.7257 4.82695H39.9657C40.0777 4.82695 40.1977 4.89895 40.3257 5.04295C40.4697 5.18695 40.5737 5.35495 40.6377 5.54695C40.6377 5.80295 40.5977 6.04295 40.5177 6.26695C40.4537 6.49095 40.2697 6.80295 39.9657 7.20295C39.8377 7.39495 39.6857 7.69895 39.5097 8.11495C39.3337 8.53095 39.2137 8.88295 39.1497 9.17095C39.1017 9.25095 39.0377 9.38695 38.9577 9.57895C38.8937 9.77095 38.8137 9.97095 38.7177 10.179L38.5977 10.707L40.2057 9.05095C40.9097 8.34695 41.4777 7.83495 41.9097 7.51495C42.3577 7.19495 42.7257 7.03495 43.0137 7.03495C43.3497 7.03495 43.6217 7.25095 43.8297 7.68295C43.9737 7.92295 44.0697 8.11495 44.1177 8.25895C44.1657 8.38695 44.1897 8.59495 44.1897 8.88295C44.1897 8.97895 44.1737 9.25095 44.1417 9.69895V11.187C44.3657 11.139 44.5657 11.075 44.7417 10.995C44.9337 10.915 45.0777 10.859 45.1737 10.827C45.5417 10.667 45.9497 10.571 46.3977 10.539C46.3657 10.811 46.2457 11.107 46.0377 11.427C45.8297 11.747 45.5737 12.019 45.2697 12.243C44.9657 12.451 44.6697 12.555 44.3817 12.555C44.1577 12.555 43.9177 12.451 43.6617 12.243C43.4217 12.035 43.2457 11.803 43.1337 11.547C43.0697 11.371 43.0297 11.155 43.0137 10.899C43.0137 10.643 43.0137 10.283 43.0137 9.81895V8.93095C43.0137 8.77095 42.9657 8.69095 42.8697 8.69095C42.8057 8.69095 42.6537 8.78695 42.4137 8.97895C42.0937 9.26695 41.5737 9.78695 40.8537 10.539C40.1657 11.259 39.5657 11.819 39.0537 12.219C38.5577 12.603 38.2137 12.795 38.0217 12.795ZM54.5384 6.60295C54.6344 6.79495 54.6824 6.97895 54.6824 7.15495C54.6824 7.39495 54.5864 7.63495 54.3944 7.87495C54.3464 7.95495 54.2584 8.08295 54.1304 8.25895C54.0024 8.41895 53.8904 8.58695 53.7944 8.76295C53.6984 8.93895 53.6264 9.13895 53.5784 9.36295C53.5144 9.73095 53.3224 10.515 53.0024 11.715L52.7384 12.651L52.3544 14.139C51.6344 16.619 50.9144 18.051 50.1944 18.435C49.9864 18.515 49.7864 18.555 49.5944 18.555C49.2424 18.555 48.8744 18.435 48.4904 18.195C48.1224 17.971 47.8024 17.659 47.5304 17.259C47.3704 17.035 47.2104 16.675 47.0504 16.179C46.9064 15.699 46.8824 15.427 46.9784 15.363C47.0104 15.331 47.0664 15.315 47.1464 15.315C47.2584 15.315 47.3784 15.347 47.5064 15.411C47.6344 15.491 47.7144 15.579 47.7464 15.675C47.8104 15.851 47.9464 16.083 48.1544 16.371C48.3624 16.659 48.5144 16.811 48.6104 16.827C48.8664 16.955 49.0824 17.019 49.2584 17.019C49.4024 17.019 49.5384 16.971 49.6664 16.875C49.9224 16.667 50.1384 16.395 50.3144 16.059C50.5064 15.739 50.7144 15.219 50.9384 14.499L51.1304 13.803C51.5144 12.395 51.7944 11.483 51.9704 11.067C52.0504 10.811 52.1304 10.611 52.2104 10.467L51.7784 10.851C51.5864 11.027 51.3864 11.195 51.1784 11.355C50.9704 11.515 50.7544 11.643 50.5304 11.739C50.4184 11.883 50.1384 11.955 49.6904 11.955C49.3704 11.955 49.0504 11.907 48.7304 11.811C48.3944 11.635 48.1864 11.499 48.1064 11.403C48.0264 11.307 47.9144 11.083 47.7704 10.731C47.7064 10.603 47.6744 10.403 47.6744 10.131C47.6744 9.44295 47.8344 8.70695 48.1544 7.92295C48.4584 7.29895 48.9384 6.63495 49.5944 5.93095C50.2504 5.22695 50.8184 4.80295 51.2984 4.65895C51.4904 4.56295 51.6664 4.51495 51.8264 4.51495C52.0024 4.51495 52.1864 4.54695 52.3784 4.61095C52.6344 4.64295 52.8344 4.69895 52.9784 4.77895C53.1224 4.85895 53.3624 5.04295 53.6984 5.33095C54.0824 5.71495 54.3624 6.13895 54.5384 6.60295ZM51.8984 8.97895C52.1704 8.61095 52.3624 8.21895 52.4744 7.80295C52.5864 7.37095 52.6264 6.94695 52.5944 6.53095C52.5784 6.30695 52.5464 6.15495 52.4984 6.07495C52.4504 5.97895 52.3624 5.93095 52.2344 5.93095C51.9304 5.93095 51.5784 6.07495 51.1784 6.36295C50.7784 6.65095 50.3944 7.02695 50.0264 7.49095C49.7864 7.81095 49.5864 8.19495 49.4264 8.64295C49.2344 9.18695 49.1384 9.69095 49.1384 10.155C49.1384 10.507 49.2024 10.707 49.3304 10.755C49.8264 10.739 50.2744 10.595 50.6744 10.323C51.0904 10.051 51.4984 9.60295 51.8984 8.97895ZM63.9382 13.659C63.3942 13.659 62.9222 13.547 62.5222 13.323C62.1222 13.099 61.8582 12.795 61.7302 12.411C61.6182 12.123 61.5622 11.963 61.5622 11.931C61.5622 11.835 61.6182 11.763 61.7302 11.715C61.8422 11.715 61.9702 11.763 62.1142 11.859C62.2742 11.955 62.4022 12.019 62.4982 12.051C62.7382 12.275 63.0662 12.387 63.4822 12.387C63.8022 12.387 64.0902 12.323 64.3462 12.195C64.6182 12.067 64.7702 11.915 64.8022 11.739C64.8022 11.659 64.7222 11.379 64.5622 10.899C64.1622 10.323 63.8502 9.73895 63.6262 9.14695C63.4182 8.53895 63.3142 8.02695 63.3142 7.61095C63.3142 7.30695 63.4022 6.99495 63.5782 6.67495C63.7542 6.35495 63.9942 6.08295 64.2982 5.85895C64.6982 5.44295 65.1782 5.06695 65.7382 4.73095C66.3142 4.39495 66.8342 4.16295 67.2982 4.03495C67.4902 4.03495 67.7222 4.05895 67.9942 4.10695C68.2822 4.15495 68.4822 4.21095 68.5942 4.27495C68.7702 4.33895 68.9382 4.51495 69.0982 4.80295C69.2582 5.09095 69.3382 5.36295 69.3382 5.61895C69.3382 5.87495 69.2022 6.22695 68.9302 6.67495C68.8982 6.78695 68.8342 6.93895 68.7382 7.13095C68.6422 7.32295 68.5942 7.44295 68.5942 7.49095C68.5302 7.65095 68.4262 7.73095 68.2822 7.73095C68.1382 7.73095 67.9942 7.66695 67.8502 7.53895C67.7222 7.39495 67.6182 7.22695 67.5382 7.03495C67.4902 6.84295 67.4662 6.67495 67.4662 6.53095C67.4662 6.33895 67.5302 6.14695 67.6582 5.95495C67.8342 5.77895 67.9222 5.65895 67.9222 5.59495C67.9222 5.53095 67.8342 5.49895 67.6582 5.49895C67.4662 5.49895 67.0982 5.65095 66.5542 5.95495C66.0102 6.25895 65.5782 6.57895 65.2582 6.91495C64.9702 7.18695 64.7942 7.39495 64.7302 7.53895C64.6662 7.66695 64.6342 7.86695 64.6342 8.13895C64.6342 8.37895 64.6822 8.66695 64.7782 9.00295C64.8902 9.32295 65.0022 9.53895 65.1142 9.65095C65.1462 9.71495 65.2102 9.85095 65.3062 10.059C65.4182 10.267 65.5462 10.467 65.6902 10.659C66.0102 11.379 66.1702 11.939 66.1702 12.339C66.1702 12.803 65.9862 13.139 65.6182 13.347C65.2662 13.555 64.7062 13.659 63.9382 13.659ZM72.6219 13.707C72.4299 13.723 72.2699 13.715 72.1419 13.683C72.0299 13.635 71.8619 13.539 71.6379 13.395C70.9499 12.835 70.6139 12.283 70.6299 11.739C70.6459 11.691 70.6539 11.619 70.6539 11.523C70.6539 11.427 70.6459 11.355 70.6299 11.307C70.6139 11.243 70.6059 11.203 70.6059 11.187C70.5419 11.139 70.5019 11.107 70.4859 11.091C70.4859 11.059 70.4939 11.027 70.5099 10.995C70.5419 10.963 70.5659 10.931 70.5819 10.899C70.6459 10.883 70.6779 10.851 70.6779 10.803C70.6779 10.755 70.6619 10.699 70.6299 10.635C70.5819 10.507 70.6059 10.219 70.7019 9.77095C70.8139 9.30695 70.9579 8.87495 71.1339 8.47495C71.2619 8.17095 71.4619 7.77895 71.7339 7.29895C72.0219 6.81895 72.2859 6.45095 72.5259 6.19495C72.8619 5.81095 73.1659 5.51495 73.4379 5.30695C73.7259 5.09895 74.0539 4.93095 74.4219 4.80295C74.7579 4.65895 74.9899 4.58695 75.1179 4.58695C75.2779 4.58695 75.4779 4.68295 75.7179 4.87495C76.1019 4.98695 76.3899 5.14695 76.5819 5.35495C76.7899 5.54695 76.9499 5.85095 77.0619 6.26695C77.1579 6.60295 77.2059 6.97895 77.2059 7.39495C77.2059 8.29095 76.9259 9.27495 76.3659 10.347C76.0779 10.923 75.7979 11.371 75.5259 11.691C75.2539 11.995 74.8779 12.355 74.3979 12.771C74.0619 13.043 73.7659 13.251 73.5099 13.395C73.2699 13.539 72.9739 13.643 72.6219 13.707ZM74.5419 10.851C74.8779 10.355 75.1339 9.90695 75.3099 9.50695C75.4859 9.09095 75.6299 8.57895 75.7419 7.97095C75.7579 7.90695 75.7659 7.77895 75.7659 7.58695C75.7659 7.26695 75.7339 6.96295 75.6699 6.67495C75.6059 6.38695 75.5259 6.23495 75.4299 6.21895C75.3019 6.17095 75.1819 6.14695 75.0699 6.14695C74.7019 6.14695 74.3099 6.36295 73.8939 6.79495C73.5099 7.24295 73.1739 7.78695 72.8859 8.42695C72.6139 9.05095 72.3419 9.81895 72.0699 10.731C71.9899 11.051 71.9499 11.307 71.9499 11.499C71.9499 11.787 72.0059 12.019 72.1179 12.195C72.2299 12.355 72.3899 12.435 72.5979 12.435C72.8539 12.435 73.1499 12.307 73.4859 12.051C73.8219 11.779 74.1739 11.379 74.5419 10.851ZM80.3148 13.491C80.1228 13.491 79.9708 13.459 79.8588 13.395C79.7468 13.331 79.5868 13.211 79.3788 13.035C78.8508 12.475 78.5868 11.963 78.5868 11.499C78.5868 11.387 78.5948 11.307 78.6108 11.259C78.6588 11.147 78.6748 11.035 78.6588 10.923C78.6588 10.811 78.6588 10.739 78.6588 10.707C78.5948 10.643 78.5628 10.603 78.5628 10.587C78.5628 10.555 78.5788 10.531 78.6108 10.515C78.6428 10.483 78.6668 10.451 78.6828 10.419C78.7788 10.419 78.8108 10.331 78.7788 10.155C78.7468 10.027 78.8108 9.74695 78.9708 9.31495C79.1308 8.86695 79.3308 8.45895 79.5708 8.09095C79.7468 7.80295 80.0028 7.44295 80.3388 7.01095C80.6908 6.57895 81.0028 6.25095 81.2748 6.02695C81.6588 5.69095 82.0028 5.44295 82.3068 5.28295C82.6108 5.12295 82.9468 5.00295 83.3148 4.92295C83.6348 4.84295 83.8508 4.80295 83.9628 4.80295C84.0748 4.80295 84.1708 4.83495 84.2508 4.89895C84.3468 4.94695 84.4668 5.04295 84.6108 5.18695C85.0428 5.37895 85.3388 5.62695 85.4988 5.93095C85.6748 6.21895 85.7628 6.67495 85.7628 7.29895C85.7628 8.33895 85.3388 9.46695 84.4908 10.683C84.1228 11.211 83.7788 11.619 83.4588 11.907C83.1388 12.179 82.7148 12.475 82.1868 12.795C81.8508 13.035 81.5388 13.211 81.2508 13.323C80.9788 13.419 80.6668 13.475 80.3148 13.491ZM82.6188 10.947C83.0028 10.515 83.3068 10.107 83.5308 9.72295C83.7708 9.33895 83.9948 8.85095 84.2028 8.25895C84.2828 7.98695 84.3228 7.65895 84.3228 7.27495C84.3228 6.79495 84.2588 6.52295 84.1308 6.45895C83.9708 6.37895 83.8108 6.33895 83.6508 6.33895C83.2988 6.33895 82.9308 6.49895 82.5468 6.81895C82.0828 7.21895 81.6668 7.71495 81.2988 8.30695C80.9308 8.88295 80.5548 9.60295 80.1708 10.467C80.0108 10.803 79.9308 11.131 79.9308 11.451C79.9308 11.691 79.9868 11.883 80.0988 12.027C80.2268 12.171 80.3948 12.243 80.6028 12.243C81.1308 12.243 81.8028 11.811 82.6188 10.947ZM88.2717 12.795C88.2237 12.795 88.1357 12.755 88.0077 12.675C87.8957 12.595 87.7997 12.515 87.7197 12.435C87.6077 12.323 87.5357 12.203 87.5037 12.075C87.4877 11.947 87.4797 11.651 87.4797 11.187C87.4797 10.691 87.5757 10.147 87.7677 9.55495C87.9757 8.96295 88.3357 8.10695 88.8477 6.98695L89.6397 5.30695C89.6877 5.19495 89.7997 5.03495 89.9757 4.82695H90.2157C90.3277 4.82695 90.4477 4.89895 90.5757 5.04295C90.7197 5.18695 90.8237 5.35495 90.8877 5.54695C90.8877 5.80295 90.8477 6.04295 90.7677 6.26695C90.7037 6.49095 90.5197 6.80295 90.2157 7.20295C90.0877 7.39495 89.9357 7.69895 89.7597 8.11495C89.5837 8.53095 89.4637 8.88295 89.3997 9.17095C89.3517 9.25095 89.2877 9.38695 89.2077 9.57895C89.1437 9.77095 89.0637 9.97095 88.9677 10.179L88.8477 10.707L90.4557 9.05095C91.1597 8.34695 91.7277 7.83495 92.1597 7.51495C92.6077 7.19495 92.9757 7.03495 93.2637 7.03495C93.5997 7.03495 93.8717 7.25095 94.0797 7.68295C94.2237 7.92295 94.3197 8.11495 94.3677 8.25895C94.4157 8.38695 94.4397 8.59495 94.4397 8.88295C94.4397 8.97895 94.4237 9.25095 94.3917 9.69895V11.187C94.6157 11.139 94.8157 11.075 94.9917 10.995C95.1837 10.915 95.3277 10.859 95.4237 10.827C95.7917 10.667 96.1997 10.571 96.6477 10.539C96.6157 10.811 96.4957 11.107 96.2877 11.427C96.0797 11.747 95.8237 12.019 95.5197 12.243C95.2157 12.451 94.9197 12.555 94.6317 12.555C94.4077 12.555 94.1677 12.451 93.9117 12.243C93.6717 12.035 93.4957 11.803 93.3837 11.547C93.3197 11.371 93.2797 11.155 93.2637 10.899C93.2637 10.643 93.2637 10.283 93.2637 9.81895V8.93095C93.2637 8.77095 93.2157 8.69095 93.1197 8.69095C93.0557 8.69095 92.9037 8.78695 92.6637 8.97895C92.3437 9.26695 91.8237 9.78695 91.1037 10.539C90.4157 11.259 89.8157 11.819 89.3037 12.219C88.8077 12.603 88.4637 12.795 88.2717 12.795Z" fill="#FFBA01"/>
</svg>
